<mxfile host="app.diagrams.net" modified="2022-07-09T10:38:19.407Z" agent="5.0 (Windows NT 10.0; Win64; x64) AppleWebKit/537.36 (KHTML, like Gecko) Chrome/103.0.5060.114 Safari/537.36" etag="rI0VqJ7P_WFGSpITvAJ_" version="20.0.4" type="github">
  <diagram id="JAH1qCPmjlSjWnBzKl3C" name="Page-1">
    <mxGraphModel dx="2586" dy="764" grid="1" gridSize="10" guides="1" tooltips="1" connect="1" arrows="1" fold="1" page="1" pageScale="1" pageWidth="850" pageHeight="1100" math="0" shadow="0">
      <root>
        <mxCell id="0" />
        <mxCell id="1" parent="0" />
        <mxCell id="Q0yMT5RCZBhQiYAW3Fju-44" style="edgeStyle=orthogonalEdgeStyle;curved=1;rounded=0;orthogonalLoop=1;jettySize=auto;html=1;exitX=0.5;exitY=1;exitDx=0;exitDy=0;entryX=0.5;entryY=0;entryDx=0;entryDy=0;" parent="1" source="Q0yMT5RCZBhQiYAW3Fju-1" target="Q0yMT5RCZBhQiYAW3Fju-4" edge="1">
          <mxGeometry relative="1" as="geometry" />
        </mxCell>
        <mxCell id="Q0yMT5RCZBhQiYAW3Fju-45" style="edgeStyle=orthogonalEdgeStyle;curved=1;rounded=0;orthogonalLoop=1;jettySize=auto;html=1;exitX=0.5;exitY=1;exitDx=0;exitDy=0;entryX=0.5;entryY=0;entryDx=0;entryDy=0;" parent="1" source="Q0yMT5RCZBhQiYAW3Fju-1" target="Q0yMT5RCZBhQiYAW3Fju-5" edge="1">
          <mxGeometry relative="1" as="geometry" />
        </mxCell>
        <mxCell id="Q0yMT5RCZBhQiYAW3Fju-1" value="&lt;span style=&quot;color: rgb(82, 82, 82); font-family: &amp;quot;IBM Plex Sans&amp;quot;, ibm-plex-sans, &amp;quot;Helvetica Neue&amp;quot;, Arial, sans-serif; font-size: 16px; text-align: start; background-color: rgb(255, 255, 255);&quot;&gt;Java is a widely used object-oriented programming language and software platform that runs on billions of devices, including notebook computers, mobile devices, gaming consoles, medical devices and many others.&amp;nbsp;&lt;/span&gt;" style="rounded=1;whiteSpace=wrap;html=1;" parent="1" vertex="1">
          <mxGeometry x="75" y="230" width="670" height="80" as="geometry" />
        </mxCell>
        <mxCell id="Q0yMT5RCZBhQiYAW3Fju-2" value="&lt;b&gt;JAVA&lt;/b&gt;" style="rounded=1;whiteSpace=wrap;html=1;" parent="1" vertex="1">
          <mxGeometry x="350" y="110" width="120" height="60" as="geometry" />
        </mxCell>
        <mxCell id="Q0yMT5RCZBhQiYAW3Fju-3" value="" style="endArrow=none;html=1;rounded=0;exitX=0.5;exitY=0;exitDx=0;exitDy=0;" parent="1" source="Q0yMT5RCZBhQiYAW3Fju-1" edge="1">
          <mxGeometry width="50" height="50" relative="1" as="geometry">
            <mxPoint x="403" y="230" as="sourcePoint" />
            <mxPoint x="410" y="170" as="targetPoint" />
          </mxGeometry>
        </mxCell>
        <mxCell id="Q0yMT5RCZBhQiYAW3Fju-25" value="" style="edgeStyle=orthogonalEdgeStyle;rounded=0;orthogonalLoop=1;jettySize=auto;html=1;" parent="1" source="Q0yMT5RCZBhQiYAW3Fju-4" target="Q0yMT5RCZBhQiYAW3Fju-18" edge="1">
          <mxGeometry relative="1" as="geometry" />
        </mxCell>
        <mxCell id="Q0yMT5RCZBhQiYAW3Fju-41" style="edgeStyle=orthogonalEdgeStyle;curved=1;rounded=0;orthogonalLoop=1;jettySize=auto;html=1;exitX=0;exitY=1;exitDx=0;exitDy=0;entryX=1;entryY=0.5;entryDx=0;entryDy=0;" parent="1" source="Q0yMT5RCZBhQiYAW3Fju-4" target="Q0yMT5RCZBhQiYAW3Fju-40" edge="1">
          <mxGeometry relative="1" as="geometry" />
        </mxCell>
        <mxCell id="Q0yMT5RCZBhQiYAW3Fju-4" value="&lt;b&gt;&lt;i&gt;TOOLS&lt;/i&gt;&lt;/b&gt;" style="ellipse;whiteSpace=wrap;html=1;" parent="1" vertex="1">
          <mxGeometry x="150" y="350" width="120" height="80" as="geometry" />
        </mxCell>
        <mxCell id="lLUH3YidAdsCZCi5Clt2-50" style="edgeStyle=orthogonalEdgeStyle;rounded=0;orthogonalLoop=1;jettySize=auto;html=1;exitX=1;exitY=1;exitDx=0;exitDy=0;entryX=0.5;entryY=0;entryDx=0;entryDy=0;" parent="1" source="Q0yMT5RCZBhQiYAW3Fju-5" target="Q0yMT5RCZBhQiYAW3Fju-89" edge="1">
          <mxGeometry relative="1" as="geometry">
            <Array as="points">
              <mxPoint x="672" y="440" />
              <mxPoint x="910" y="440" />
            </Array>
          </mxGeometry>
        </mxCell>
        <mxCell id="Q0yMT5RCZBhQiYAW3Fju-5" value="&lt;i&gt;&lt;b&gt;JDK&lt;/b&gt;&lt;/i&gt;" style="ellipse;whiteSpace=wrap;html=1;" parent="1" vertex="1">
          <mxGeometry x="570" y="350" width="120" height="80" as="geometry" />
        </mxCell>
        <mxCell id="Q0yMT5RCZBhQiYAW3Fju-6" style="edgeStyle=orthogonalEdgeStyle;rounded=0;orthogonalLoop=1;jettySize=auto;html=1;exitX=0.5;exitY=0;exitDx=0;exitDy=0;" parent="1" source="Q0yMT5RCZBhQiYAW3Fju-2" target="Q0yMT5RCZBhQiYAW3Fju-2" edge="1">
          <mxGeometry relative="1" as="geometry">
            <Array as="points">
              <mxPoint x="410" y="150" />
            </Array>
          </mxGeometry>
        </mxCell>
        <mxCell id="Q0yMT5RCZBhQiYAW3Fju-20" value="" style="edgeStyle=orthogonalEdgeStyle;rounded=0;orthogonalLoop=1;jettySize=auto;html=1;" parent="1" source="Q0yMT5RCZBhQiYAW3Fju-18" target="Q0yMT5RCZBhQiYAW3Fju-19" edge="1">
          <mxGeometry relative="1" as="geometry" />
        </mxCell>
        <mxCell id="Q0yMT5RCZBhQiYAW3Fju-22" value="" style="edgeStyle=orthogonalEdgeStyle;rounded=0;orthogonalLoop=1;jettySize=auto;html=1;" parent="1" source="Q0yMT5RCZBhQiYAW3Fju-18" target="Q0yMT5RCZBhQiYAW3Fju-21" edge="1">
          <mxGeometry relative="1" as="geometry" />
        </mxCell>
        <mxCell id="Q0yMT5RCZBhQiYAW3Fju-18" value="" style="rounded=0;whiteSpace=wrap;html=1;" parent="1" vertex="1">
          <mxGeometry x="150" y="480" width="120" height="30" as="geometry" />
        </mxCell>
        <mxCell id="Q0yMT5RCZBhQiYAW3Fju-35" value="" style="edgeStyle=orthogonalEdgeStyle;rounded=0;orthogonalLoop=1;jettySize=auto;html=1;" parent="1" source="Q0yMT5RCZBhQiYAW3Fju-19" target="Q0yMT5RCZBhQiYAW3Fju-34" edge="1">
          <mxGeometry relative="1" as="geometry" />
        </mxCell>
        <mxCell id="Q0yMT5RCZBhQiYAW3Fju-19" value="ANSIBLE" style="rounded=0;whiteSpace=wrap;html=1;" parent="1" vertex="1">
          <mxGeometry x="305" y="480" width="120" height="30" as="geometry" />
        </mxCell>
        <mxCell id="Q0yMT5RCZBhQiYAW3Fju-24" value="" style="edgeStyle=orthogonalEdgeStyle;rounded=0;orthogonalLoop=1;jettySize=auto;html=1;" parent="1" source="Q0yMT5RCZBhQiYAW3Fju-21" target="Q0yMT5RCZBhQiYAW3Fju-23" edge="1">
          <mxGeometry relative="1" as="geometry" />
        </mxCell>
        <mxCell id="Q0yMT5RCZBhQiYAW3Fju-21" value="" style="rounded=0;whiteSpace=wrap;html=1;" parent="1" vertex="1">
          <mxGeometry x="-50" y="480" width="120" height="30" as="geometry" />
        </mxCell>
        <mxCell id="Q0yMT5RCZBhQiYAW3Fju-27" value="" style="edgeStyle=orthogonalEdgeStyle;rounded=0;orthogonalLoop=1;jettySize=auto;html=1;" parent="1" source="Q0yMT5RCZBhQiYAW3Fju-23" target="Q0yMT5RCZBhQiYAW3Fju-26" edge="1">
          <mxGeometry relative="1" as="geometry" />
        </mxCell>
        <mxCell id="Q0yMT5RCZBhQiYAW3Fju-23" value="" style="rounded=0;whiteSpace=wrap;html=1;" parent="1" vertex="1">
          <mxGeometry x="-250" y="480" width="120" height="30" as="geometry" />
        </mxCell>
        <mxCell id="Q0yMT5RCZBhQiYAW3Fju-29" value="" style="edgeStyle=orthogonalEdgeStyle;rounded=0;orthogonalLoop=1;jettySize=auto;html=1;" parent="1" source="Q0yMT5RCZBhQiYAW3Fju-26" target="Q0yMT5RCZBhQiYAW3Fju-28" edge="1">
          <mxGeometry relative="1" as="geometry" />
        </mxCell>
        <mxCell id="Q0yMT5RCZBhQiYAW3Fju-31" value="" style="edgeStyle=orthogonalEdgeStyle;rounded=0;orthogonalLoop=1;jettySize=auto;html=1;" parent="1" source="Q0yMT5RCZBhQiYAW3Fju-26" target="Q0yMT5RCZBhQiYAW3Fju-30" edge="1">
          <mxGeometry relative="1" as="geometry" />
        </mxCell>
        <mxCell id="Q0yMT5RCZBhQiYAW3Fju-37" value="" style="edgeStyle=orthogonalEdgeStyle;rounded=0;orthogonalLoop=1;jettySize=auto;html=1;" parent="1" source="Q0yMT5RCZBhQiYAW3Fju-26" target="Q0yMT5RCZBhQiYAW3Fju-36" edge="1">
          <mxGeometry relative="1" as="geometry" />
        </mxCell>
        <mxCell id="Q0yMT5RCZBhQiYAW3Fju-26" value="KUBERNATES" style="rounded=0;whiteSpace=wrap;html=1;" parent="1" vertex="1">
          <mxGeometry x="-50" y="480" width="120" height="30" as="geometry" />
        </mxCell>
        <mxCell id="Q0yMT5RCZBhQiYAW3Fju-28" value="DOCKER" style="rounded=0;whiteSpace=wrap;html=1;" parent="1" vertex="1">
          <mxGeometry x="-250" y="480" width="120" height="30" as="geometry" />
        </mxCell>
        <mxCell id="Q0yMT5RCZBhQiYAW3Fju-30" value="" style="rounded=0;whiteSpace=wrap;html=1;" parent="1" vertex="1">
          <mxGeometry x="150" y="480" width="120" height="30" as="geometry" />
        </mxCell>
        <mxCell id="Q0yMT5RCZBhQiYAW3Fju-34" value="JENKINS" style="rounded=0;whiteSpace=wrap;html=1;" parent="1" vertex="1">
          <mxGeometry x="140" y="480" width="130" height="30" as="geometry" />
        </mxCell>
        <mxCell id="Q0yMT5RCZBhQiYAW3Fju-36" value="JENKINS" style="rounded=0;whiteSpace=wrap;html=1;" parent="1" vertex="1">
          <mxGeometry x="140" y="480" width="130" height="30" as="geometry" />
        </mxCell>
        <mxCell id="Q0yMT5RCZBhQiYAW3Fju-40" value="IDEs" style="rounded=1;whiteSpace=wrap;html=1;" parent="1" vertex="1">
          <mxGeometry x="-110" y="340" width="120" height="30" as="geometry" />
        </mxCell>
        <mxCell id="Q0yMT5RCZBhQiYAW3Fju-51" value="ECLIPSE" style="rounded=1;whiteSpace=wrap;html=1;" parent="1" vertex="1">
          <mxGeometry x="-380" y="210" width="90" height="30" as="geometry" />
        </mxCell>
        <mxCell id="Q0yMT5RCZBhQiYAW3Fju-52" value="IDEA" style="rounded=1;whiteSpace=wrap;html=1;" parent="1" vertex="1">
          <mxGeometry x="-260" y="210" width="90" height="30" as="geometry" />
        </mxCell>
        <mxCell id="Q0yMT5RCZBhQiYAW3Fju-53" value="NETBEANS" style="rounded=1;whiteSpace=wrap;html=1;" parent="1" vertex="1">
          <mxGeometry x="-130" y="210" width="90" height="30" as="geometry" />
        </mxCell>
        <mxCell id="Q0yMT5RCZBhQiYAW3Fju-54" value="" style="endArrow=none;dashed=1;html=1;dashPattern=1 3;strokeWidth=2;rounded=0;curved=1;edgeStyle=orthogonalEdgeStyle;exitX=0.5;exitY=0;exitDx=0;exitDy=0;entryX=0.5;entryY=1;entryDx=0;entryDy=0;" parent="1" source="Q0yMT5RCZBhQiYAW3Fju-40" target="Q0yMT5RCZBhQiYAW3Fju-53" edge="1">
          <mxGeometry width="50" height="50" relative="1" as="geometry">
            <mxPoint x="60" y="360" as="sourcePoint" />
            <mxPoint y="290" as="targetPoint" />
          </mxGeometry>
        </mxCell>
        <mxCell id="Q0yMT5RCZBhQiYAW3Fju-55" value="" style="endArrow=none;dashed=1;html=1;dashPattern=1 3;strokeWidth=2;rounded=0;curved=1;edgeStyle=orthogonalEdgeStyle;entryX=0.5;entryY=1;entryDx=0;entryDy=0;exitX=0.5;exitY=0;exitDx=0;exitDy=0;" parent="1" source="Q0yMT5RCZBhQiYAW3Fju-40" target="Q0yMT5RCZBhQiYAW3Fju-52" edge="1">
          <mxGeometry width="50" height="50" relative="1" as="geometry">
            <mxPoint x="60" y="360" as="sourcePoint" />
            <mxPoint x="110" y="310" as="targetPoint" />
            <Array as="points">
              <mxPoint x="-70" y="340" />
              <mxPoint x="-70" y="290" />
              <mxPoint x="-215" y="290" />
            </Array>
          </mxGeometry>
        </mxCell>
        <mxCell id="Q0yMT5RCZBhQiYAW3Fju-56" value="" style="endArrow=none;dashed=1;html=1;dashPattern=1 3;strokeWidth=2;rounded=0;curved=1;edgeStyle=orthogonalEdgeStyle;entryX=0.5;entryY=1;entryDx=0;entryDy=0;exitX=0.5;exitY=0;exitDx=0;exitDy=0;" parent="1" source="Q0yMT5RCZBhQiYAW3Fju-40" target="Q0yMT5RCZBhQiYAW3Fju-51" edge="1">
          <mxGeometry width="50" height="50" relative="1" as="geometry">
            <mxPoint x="60" y="360" as="sourcePoint" />
            <mxPoint x="110" y="310" as="targetPoint" />
            <Array as="points">
              <mxPoint x="-160" y="340" />
              <mxPoint x="-160" y="300" />
              <mxPoint x="-335" y="300" />
            </Array>
          </mxGeometry>
        </mxCell>
        <mxCell id="Q0yMT5RCZBhQiYAW3Fju-64" value="MAVEN" style="rounded=1;whiteSpace=wrap;html=1;" parent="1" vertex="1">
          <mxGeometry x="-510" y="340" width="120" height="30" as="geometry" />
        </mxCell>
        <mxCell id="Q0yMT5RCZBhQiYAW3Fju-65" value="GRADLE" style="rounded=1;whiteSpace=wrap;html=1;" parent="1" vertex="1">
          <mxGeometry x="-510" y="380" width="120" height="30" as="geometry" />
        </mxCell>
        <mxCell id="Q0yMT5RCZBhQiYAW3Fju-66" value="ANT" style="rounded=1;whiteSpace=wrap;html=1;" parent="1" vertex="1">
          <mxGeometry x="-510" y="420" width="120" height="30" as="geometry" />
        </mxCell>
        <mxCell id="Q0yMT5RCZBhQiYAW3Fju-68" value="" style="endArrow=none;dashed=1;html=1;dashPattern=1 3;strokeWidth=2;rounded=0;entryX=1;entryY=0.5;entryDx=0;entryDy=0;" parent="1" target="Q0yMT5RCZBhQiYAW3Fju-64" edge="1">
          <mxGeometry width="50" height="50" relative="1" as="geometry">
            <mxPoint x="-110" y="360" as="sourcePoint" />
            <mxPoint x="100" y="280" as="targetPoint" />
          </mxGeometry>
        </mxCell>
        <mxCell id="Q0yMT5RCZBhQiYAW3Fju-69" value="" style="endArrow=none;dashed=1;html=1;dashPattern=1 3;strokeWidth=2;rounded=0;edgeStyle=orthogonalEdgeStyle;entryX=0;entryY=0.75;entryDx=0;entryDy=0;exitX=1;exitY=0.75;exitDx=0;exitDy=0;" parent="1" source="Q0yMT5RCZBhQiYAW3Fju-65" target="Q0yMT5RCZBhQiYAW3Fju-40" edge="1">
          <mxGeometry width="50" height="50" relative="1" as="geometry">
            <mxPoint x="50" y="330" as="sourcePoint" />
            <mxPoint x="100" y="280" as="targetPoint" />
            <Array as="points">
              <mxPoint x="-110" y="403" />
            </Array>
          </mxGeometry>
        </mxCell>
        <mxCell id="Q0yMT5RCZBhQiYAW3Fju-70" value="" style="endArrow=none;dashed=1;html=1;dashPattern=1 3;strokeWidth=2;rounded=0;edgeStyle=orthogonalEdgeStyle;exitX=1;exitY=0.5;exitDx=0;exitDy=0;entryX=0.25;entryY=1;entryDx=0;entryDy=0;" parent="1" source="Q0yMT5RCZBhQiYAW3Fju-66" target="Q0yMT5RCZBhQiYAW3Fju-40" edge="1">
          <mxGeometry width="50" height="50" relative="1" as="geometry">
            <mxPoint x="50" y="330" as="sourcePoint" />
            <mxPoint x="100" y="280" as="targetPoint" />
          </mxGeometry>
        </mxCell>
        <mxCell id="Q0yMT5RCZBhQiYAW3Fju-71" value="Collections" style="rounded=1;whiteSpace=wrap;html=1;" parent="1" vertex="1">
          <mxGeometry x="960" y="320" width="100" height="20" as="geometry" />
        </mxCell>
        <mxCell id="Q0yMT5RCZBhQiYAW3Fju-72" value="LIST" style="rounded=1;whiteSpace=wrap;html=1;" parent="1" vertex="1">
          <mxGeometry x="810" y="260" width="100" height="20" as="geometry" />
        </mxCell>
        <mxCell id="Q0yMT5RCZBhQiYAW3Fju-73" value="SET" style="rounded=1;whiteSpace=wrap;html=1;" parent="1" vertex="1">
          <mxGeometry x="920" y="260" width="80" height="20" as="geometry" />
        </mxCell>
        <mxCell id="Q0yMT5RCZBhQiYAW3Fju-74" value="MAP" style="rounded=1;whiteSpace=wrap;html=1;" parent="1" vertex="1">
          <mxGeometry x="1010" y="260" width="80" height="20" as="geometry" />
        </mxCell>
        <mxCell id="Q0yMT5RCZBhQiYAW3Fju-75" value="SortedMap" style="rounded=1;whiteSpace=wrap;html=1;" parent="1" vertex="1">
          <mxGeometry x="1100" y="260" width="80" height="20" as="geometry" />
        </mxCell>
        <mxCell id="Q0yMT5RCZBhQiYAW3Fju-76" value="Concurrency" style="rounded=1;whiteSpace=wrap;html=1;" parent="1" vertex="1">
          <mxGeometry x="1110" y="370" width="100" height="20" as="geometry" />
        </mxCell>
        <mxCell id="Q0yMT5RCZBhQiYAW3Fju-77" value="Thread" style="rounded=1;whiteSpace=wrap;html=1;" parent="1" vertex="1">
          <mxGeometry x="1260" y="300" width="100" height="20" as="geometry" />
        </mxCell>
        <mxCell id="Q0yMT5RCZBhQiYAW3Fju-78" value="Thread Pool" style="rounded=1;whiteSpace=wrap;html=1;" parent="1" vertex="1">
          <mxGeometry x="1260" y="330" width="100" height="30" as="geometry" />
        </mxCell>
        <mxCell id="Q0yMT5RCZBhQiYAW3Fju-79" value="Count Down Latch" style="rounded=1;whiteSpace=wrap;html=1;" parent="1" vertex="1">
          <mxGeometry x="1260" y="370" width="100" height="30" as="geometry" />
        </mxCell>
        <mxCell id="Q0yMT5RCZBhQiYAW3Fju-80" value="Concurrency patterns" style="rounded=1;whiteSpace=wrap;html=1;" parent="1" vertex="1">
          <mxGeometry x="1260" y="410" width="100" height="30" as="geometry" />
        </mxCell>
        <mxCell id="Q0yMT5RCZBhQiYAW3Fju-81" value="IO" style="rounded=1;whiteSpace=wrap;html=1;fontStyle=3" parent="1" vertex="1">
          <mxGeometry x="600" y="490" width="100" height="30" as="geometry" />
        </mxCell>
        <mxCell id="Q0yMT5RCZBhQiYAW3Fju-82" value="File IO" style="rounded=1;whiteSpace=wrap;html=1;" parent="1" vertex="1">
          <mxGeometry x="700" y="550" width="120" height="30" as="geometry" />
        </mxCell>
        <mxCell id="Q0yMT5RCZBhQiYAW3Fju-83" value="Networking IO" style="rounded=1;whiteSpace=wrap;html=1;" parent="1" vertex="1">
          <mxGeometry x="700" y="590" width="120" height="30" as="geometry" />
        </mxCell>
        <mxCell id="Q0yMT5RCZBhQiYAW3Fju-84" value="Socket Programming" style="rounded=1;whiteSpace=wrap;html=1;" parent="1" vertex="1">
          <mxGeometry x="700" y="630" width="120" height="30" as="geometry" />
        </mxCell>
        <mxCell id="Q0yMT5RCZBhQiYAW3Fju-85" value="JAVA NIO" style="rounded=1;whiteSpace=wrap;html=1;" parent="1" vertex="1">
          <mxGeometry x="700" y="670" width="120" height="30" as="geometry" />
        </mxCell>
        <mxCell id="Q0yMT5RCZBhQiYAW3Fju-88" value="Memory Mapped IO" style="rounded=1;whiteSpace=wrap;html=1;" parent="1" vertex="1">
          <mxGeometry x="700" y="710" width="120" height="30" as="geometry" />
        </mxCell>
        <mxCell id="Q0yMT5RCZBhQiYAW3Fju-89" value="&lt;b&gt;&lt;i&gt;JAVA 8&lt;/i&gt;&lt;/b&gt;" style="rounded=1;whiteSpace=wrap;html=1;" parent="1" vertex="1">
          <mxGeometry x="850" y="490" width="120" height="30" as="geometry" />
        </mxCell>
        <mxCell id="Q0yMT5RCZBhQiYAW3Fju-90" value="Functionalprogramming" style="rounded=1;whiteSpace=wrap;html=1;" parent="1" vertex="1">
          <mxGeometry x="990" y="680" width="170" height="20" as="geometry" />
        </mxCell>
        <mxCell id="Q0yMT5RCZBhQiYAW3Fju-91" value="Other API Enhancement" style="rounded=1;whiteSpace=wrap;html=1;" parent="1" vertex="1">
          <mxGeometry x="990" y="650" width="170" height="20" as="geometry" />
        </mxCell>
        <mxCell id="Q0yMT5RCZBhQiYAW3Fju-92" value="Optional" style="rounded=1;whiteSpace=wrap;html=1;" parent="1" vertex="1">
          <mxGeometry x="1030" y="620" width="120" height="20" as="geometry" />
        </mxCell>
        <mxCell id="Q0yMT5RCZBhQiYAW3Fju-93" value="Stream API" style="rounded=1;whiteSpace=wrap;html=1;" parent="1" vertex="1">
          <mxGeometry x="1030" y="590" width="120" height="20" as="geometry" />
        </mxCell>
        <mxCell id="Q0yMT5RCZBhQiYAW3Fju-94" value="Data Time API" style="rounded=1;whiteSpace=wrap;html=1;" parent="1" vertex="1">
          <mxGeometry x="1030" y="560" width="120" height="20" as="geometry" />
        </mxCell>
        <mxCell id="Q0yMT5RCZBhQiYAW3Fju-95" value="Lambdas" style="rounded=1;whiteSpace=wrap;html=1;" parent="1" vertex="1">
          <mxGeometry x="1030" y="530" width="120" height="20" as="geometry" />
        </mxCell>
        <mxCell id="Q0yMT5RCZBhQiYAW3Fju-99" value="&lt;b&gt;&lt;i&gt;FRAMEWORK&lt;/i&gt;&lt;/b&gt;" style="rounded=1;whiteSpace=wrap;html=1;" parent="1" vertex="1">
          <mxGeometry x="-60" y="575" width="130" height="25" as="geometry" />
        </mxCell>
        <mxCell id="Q0yMT5RCZBhQiYAW3Fju-100" value="" style="endArrow=classic;html=1;rounded=0;entryX=0.5;entryY=0;entryDx=0;entryDy=0;" parent="1" target="Q0yMT5RCZBhQiYAW3Fju-99" edge="1">
          <mxGeometry width="50" height="50" relative="1" as="geometry">
            <mxPoint x="5" y="510" as="sourcePoint" />
            <mxPoint x="5" y="520" as="targetPoint" />
          </mxGeometry>
        </mxCell>
        <mxCell id="Q0yMT5RCZBhQiYAW3Fju-102" value="HIBERNATE" style="rounded=1;whiteSpace=wrap;html=1;" parent="1" vertex="1">
          <mxGeometry x="-240" y="640" width="130" height="30" as="geometry" />
        </mxCell>
        <mxCell id="Q0yMT5RCZBhQiYAW3Fju-103" value="SpringBoot" style="rounded=1;whiteSpace=wrap;html=1;" parent="1" vertex="1">
          <mxGeometry x="100" y="640" width="130" height="30" as="geometry" />
        </mxCell>
        <mxCell id="Q0yMT5RCZBhQiYAW3Fju-104" value="SPRING" style="rounded=1;whiteSpace=wrap;html=1;" parent="1" vertex="1">
          <mxGeometry x="-70" y="640" width="130" height="30" as="geometry" />
        </mxCell>
        <mxCell id="Q0yMT5RCZBhQiYAW3Fju-106" value="&lt;b&gt;SpringCore&lt;/b&gt;" style="rounded=1;whiteSpace=wrap;html=1;" parent="1" vertex="1">
          <mxGeometry x="-90" y="710" width="170" height="30" as="geometry" />
        </mxCell>
        <mxCell id="Q0yMT5RCZBhQiYAW3Fju-107" value="AOP" style="rounded=1;whiteSpace=wrap;html=1;" parent="1" vertex="1">
          <mxGeometry x="180" y="760" width="130" height="30" as="geometry" />
        </mxCell>
        <mxCell id="Q0yMT5RCZBhQiYAW3Fju-108" value="API" style="rounded=1;whiteSpace=wrap;html=1;" parent="1" vertex="1">
          <mxGeometry x="180" y="800" width="130" height="30" as="geometry" />
        </mxCell>
        <mxCell id="Q0yMT5RCZBhQiYAW3Fju-109" value="DI and IOC" style="rounded=1;whiteSpace=wrap;html=1;" parent="1" vertex="1">
          <mxGeometry x="180" y="720" width="130" height="30" as="geometry" />
        </mxCell>
        <mxCell id="Q0yMT5RCZBhQiYAW3Fju-110" value="&lt;b&gt;Microservice&lt;/b&gt;" style="rounded=1;whiteSpace=wrap;html=1;align=center;" parent="1" vertex="1">
          <mxGeometry x="-90" y="840" width="180" height="30" as="geometry" />
        </mxCell>
        <mxCell id="Q0yMT5RCZBhQiYAW3Fju-111" value="Data persistance" style="rounded=1;whiteSpace=wrap;html=1;" parent="1" vertex="1">
          <mxGeometry x="-370" y="790" width="180" height="30" as="geometry" />
        </mxCell>
        <mxCell id="Q0yMT5RCZBhQiYAW3Fju-113" value="JPA" style="rounded=1;whiteSpace=wrap;html=1;" parent="1" vertex="1">
          <mxGeometry x="-290" y="860" width="130" height="20" as="geometry" />
        </mxCell>
        <mxCell id="Q0yMT5RCZBhQiYAW3Fju-114" value="Spring Data" style="rounded=1;whiteSpace=wrap;html=1;" parent="1" vertex="1">
          <mxGeometry x="-450" y="860" width="130" height="20" as="geometry" />
        </mxCell>
        <mxCell id="Q0yMT5RCZBhQiYAW3Fju-117" value="DropWizard" style="rounded=1;whiteSpace=wrap;html=1;" parent="1" vertex="1">
          <mxGeometry x="180" y="930" width="130" height="30" as="geometry" />
        </mxCell>
        <mxCell id="Q0yMT5RCZBhQiYAW3Fju-119" value="sprimg Cloud" style="rounded=1;whiteSpace=wrap;html=1;" parent="1" vertex="1">
          <mxGeometry x="-120" y="930" width="130" height="30" as="geometry" />
        </mxCell>
        <mxCell id="Q0yMT5RCZBhQiYAW3Fju-120" value="Quarkus" style="rounded=1;whiteSpace=wrap;html=1;" parent="1" vertex="1">
          <mxGeometry x="-270" y="930" width="130" height="30" as="geometry" />
        </mxCell>
        <mxCell id="Q0yMT5RCZBhQiYAW3Fju-121" value="Micronut" style="rounded=1;whiteSpace=wrap;html=1;" parent="1" vertex="1">
          <mxGeometry x="-420" y="930" width="130" height="30" as="geometry" />
        </mxCell>
        <mxCell id="Q0yMT5RCZBhQiYAW3Fju-124" value="JCloud" style="rounded=1;whiteSpace=wrap;html=1;" parent="1" vertex="1">
          <mxGeometry x="30" y="930" width="130" height="30" as="geometry" />
        </mxCell>
        <mxCell id="Q0yMT5RCZBhQiYAW3Fju-125" value="&lt;b&gt;&lt;i&gt;Desktop And Fronted&lt;/i&gt;&lt;/b&gt;" style="rounded=1;whiteSpace=wrap;html=1;" parent="1" vertex="1">
          <mxGeometry x="625" y="870" width="165" height="30" as="geometry" />
        </mxCell>
        <mxCell id="Q0yMT5RCZBhQiYAW3Fju-126" value="JAVA FX" style="rounded=1;whiteSpace=wrap;html=1;" parent="1" vertex="1">
          <mxGeometry x="530" y="940" width="120" height="20" as="geometry" />
        </mxCell>
        <mxCell id="Q0yMT5RCZBhQiYAW3Fju-127" value="AWT" style="rounded=1;whiteSpace=wrap;html=1;" parent="1" vertex="1">
          <mxGeometry x="790" y="940" width="120" height="20" as="geometry" />
        </mxCell>
        <mxCell id="Q0yMT5RCZBhQiYAW3Fju-128" value="Swing" style="rounded=1;whiteSpace=wrap;html=1;" parent="1" vertex="1">
          <mxGeometry x="660" y="940" width="120" height="20" as="geometry" />
        </mxCell>
        <mxCell id="Q0yMT5RCZBhQiYAW3Fju-129" value="&lt;b&gt;Messaging&lt;/b&gt;" style="rounded=1;whiteSpace=wrap;html=1;" parent="1" vertex="1">
          <mxGeometry x="1020" y="800" width="150" height="30" as="geometry" />
        </mxCell>
        <mxCell id="Q0yMT5RCZBhQiYAW3Fju-131" value="Kafka" style="rounded=1;whiteSpace=wrap;html=1;" parent="1" vertex="1">
          <mxGeometry x="1000" y="910" width="120" height="20" as="geometry" />
        </mxCell>
        <mxCell id="Q0yMT5RCZBhQiYAW3Fju-134" value="JMS" style="rounded=1;whiteSpace=wrap;html=1;" parent="1" vertex="1">
          <mxGeometry x="1000" y="950" width="120" height="20" as="geometry" />
        </mxCell>
        <mxCell id="Q0yMT5RCZBhQiYAW3Fju-136" value="Active MQ" style="rounded=1;whiteSpace=wrap;html=1;" parent="1" vertex="1">
          <mxGeometry x="1000" y="875" width="120" height="20" as="geometry" />
        </mxCell>
        <mxCell id="lLUH3YidAdsCZCi5Clt2-2" value="&lt;b&gt;&lt;i&gt;API Clients&lt;/i&gt;&lt;/b&gt;" style="rounded=1;whiteSpace=wrap;html=1;" parent="1" vertex="1">
          <mxGeometry x="-90" y="1070" width="190" height="40" as="geometry" />
        </mxCell>
        <mxCell id="lLUH3YidAdsCZCi5Clt2-3" value="REST" style="rounded=1;whiteSpace=wrap;html=1;" parent="1" vertex="1">
          <mxGeometry x="-200" y="1170" width="140" height="30" as="geometry" />
        </mxCell>
        <mxCell id="lLUH3YidAdsCZCi5Clt2-4" value="SOAP" style="rounded=1;whiteSpace=wrap;html=1;" parent="1" vertex="1">
          <mxGeometry x="60" y="1170" width="140" height="30" as="geometry" />
        </mxCell>
        <mxCell id="lLUH3YidAdsCZCi5Clt2-5" value="Jersey" style="rounded=1;whiteSpace=wrap;html=1;" parent="1" vertex="1">
          <mxGeometry x="-410" y="1250" width="120" height="30" as="geometry" />
        </mxCell>
        <mxCell id="lLUH3YidAdsCZCi5Clt2-6" value="Restiet" style="rounded=1;whiteSpace=wrap;html=1;" parent="1" vertex="1">
          <mxGeometry x="-410" y="1210" width="120" height="30" as="geometry" />
        </mxCell>
        <mxCell id="lLUH3YidAdsCZCi5Clt2-7" value="JAX-RS" style="rounded=1;whiteSpace=wrap;html=1;" parent="1" vertex="1">
          <mxGeometry x="-410" y="1170" width="120" height="30" as="geometry" />
        </mxCell>
        <mxCell id="lLUH3YidAdsCZCi5Clt2-10" value="JAX-WS" style="rounded=1;whiteSpace=wrap;html=1;" parent="1" vertex="1">
          <mxGeometry x="-20" y="1255" width="100" height="20" as="geometry" />
        </mxCell>
        <mxCell id="lLUH3YidAdsCZCi5Clt2-11" value="Axis2" style="rounded=1;whiteSpace=wrap;html=1;" parent="1" vertex="1">
          <mxGeometry x="140" y="1255" width="100" height="20" as="geometry" />
        </mxCell>
        <mxCell id="lLUH3YidAdsCZCi5Clt2-13" value="&lt;b&gt;&lt;i&gt;TESTING&lt;/i&gt;&lt;/b&gt;" style="rounded=1;whiteSpace=wrap;html=1;" parent="1" vertex="1">
          <mxGeometry x="585" y="1170" width="130" height="40" as="geometry" />
        </mxCell>
        <mxCell id="lLUH3YidAdsCZCi5Clt2-14" value="Unit Testing" style="rounded=1;whiteSpace=wrap;html=1;" parent="1" vertex="1">
          <mxGeometry x="795" y="1070" width="130" height="30" as="geometry" />
        </mxCell>
        <mxCell id="lLUH3YidAdsCZCi5Clt2-15" value="EasyMock" style="rounded=1;whiteSpace=wrap;html=1;" parent="1" vertex="1">
          <mxGeometry x="1120" y="1200" width="130" height="30" as="geometry" />
        </mxCell>
        <mxCell id="lLUH3YidAdsCZCi5Clt2-16" value="Spock" style="rounded=1;whiteSpace=wrap;html=1;" parent="1" vertex="1">
          <mxGeometry x="1120" y="1160" width="130" height="30" as="geometry" />
        </mxCell>
        <mxCell id="lLUH3YidAdsCZCi5Clt2-17" value="PowerMOCK" style="rounded=1;whiteSpace=wrap;html=1;" parent="1" vertex="1">
          <mxGeometry x="1120" y="1100" width="130" height="30" as="geometry" />
        </mxCell>
        <mxCell id="lLUH3YidAdsCZCi5Clt2-18" value="Mockito" style="rounded=1;whiteSpace=wrap;html=1;" parent="1" vertex="1">
          <mxGeometry x="1120" y="1060" width="130" height="30" as="geometry" />
        </mxCell>
        <mxCell id="lLUH3YidAdsCZCi5Clt2-19" value="JUnit" style="rounded=1;whiteSpace=wrap;html=1;" parent="1" vertex="1">
          <mxGeometry x="1120" y="1020" width="130" height="30" as="geometry" />
        </mxCell>
        <mxCell id="lLUH3YidAdsCZCi5Clt2-20" value="Robot&lt;br&gt;Framework" style="rounded=1;whiteSpace=wrap;html=1;" parent="1" vertex="1">
          <mxGeometry x="1040" y="1275" width="130" height="50" as="geometry" />
        </mxCell>
        <mxCell id="lLUH3YidAdsCZCi5Clt2-21" value="Integration Testing" style="rounded=1;whiteSpace=wrap;html=1;" parent="1" vertex="1">
          <mxGeometry x="770" y="1255" width="180" height="30" as="geometry" />
        </mxCell>
        <mxCell id="lLUH3YidAdsCZCi5Clt2-23" value="Cucumber" style="rounded=1;whiteSpace=wrap;html=1;" parent="1" vertex="1">
          <mxGeometry x="860" y="1420" width="130" height="30" as="geometry" />
        </mxCell>
        <mxCell id="lLUH3YidAdsCZCi5Clt2-24" value="Selenium" style="rounded=1;whiteSpace=wrap;html=1;" parent="1" vertex="1">
          <mxGeometry x="860" y="1370" width="130" height="30" as="geometry" />
        </mxCell>
        <mxCell id="lLUH3YidAdsCZCi5Clt2-25" value="E2E TESTING" style="rounded=1;whiteSpace=wrap;html=1;" parent="1" vertex="1">
          <mxGeometry x="585" y="1390" width="130" height="30" as="geometry" />
        </mxCell>
        <mxCell id="lLUH3YidAdsCZCi5Clt2-26" value="&lt;b&gt;&lt;i&gt;UTILITY LIBRARIES&lt;/i&gt;&lt;/b&gt;" style="rounded=1;whiteSpace=wrap;html=1;" parent="1" vertex="1">
          <mxGeometry x="-40" y="1365" width="170" height="40" as="geometry" />
        </mxCell>
        <mxCell id="lLUH3YidAdsCZCi5Clt2-27" value="Guava" style="rounded=1;whiteSpace=wrap;html=1;" parent="1" vertex="1">
          <mxGeometry x="-290" y="1420" width="130" height="30" as="geometry" />
        </mxCell>
        <mxCell id="lLUH3YidAdsCZCi5Clt2-28" value="Apache Commons" style="rounded=1;whiteSpace=wrap;html=1;" parent="1" vertex="1">
          <mxGeometry x="-290" y="1460" width="130" height="30" as="geometry" />
        </mxCell>
        <mxCell id="lLUH3YidAdsCZCi5Clt2-29" value="Jackson JSON" style="rounded=1;whiteSpace=wrap;html=1;" parent="1" vertex="1">
          <mxGeometry x="-290" y="1500" width="130" height="30" as="geometry" />
        </mxCell>
        <mxCell id="lLUH3YidAdsCZCi5Clt2-30" value="i18n" style="rounded=1;whiteSpace=wrap;html=1;" parent="1" vertex="1">
          <mxGeometry x="270" y="1650" width="90" height="30" as="geometry" />
        </mxCell>
        <mxCell id="lLUH3YidAdsCZCi5Clt2-31" value="Jsoup" style="rounded=1;whiteSpace=wrap;html=1;" parent="1" vertex="1">
          <mxGeometry x="-290" y="1660" width="130" height="30" as="geometry" />
        </mxCell>
        <mxCell id="lLUH3YidAdsCZCi5Clt2-32" value="Apache Mina" style="rounded=1;whiteSpace=wrap;html=1;" parent="1" vertex="1">
          <mxGeometry x="-290" y="1620" width="130" height="30" as="geometry" />
        </mxCell>
        <mxCell id="lLUH3YidAdsCZCi5Clt2-33" value="Eclipse Collection" style="rounded=1;whiteSpace=wrap;html=1;" parent="1" vertex="1">
          <mxGeometry x="-290" y="1540" width="130" height="30" as="geometry" />
        </mxCell>
        <mxCell id="lLUH3YidAdsCZCi5Clt2-34" value="Log4j, SLF4J" style="rounded=1;whiteSpace=wrap;html=1;" parent="1" vertex="1">
          <mxGeometry x="-290" y="1580" width="130" height="30" as="geometry" />
        </mxCell>
        <mxCell id="lLUH3YidAdsCZCi5Clt2-39" value="&lt;b&gt;&lt;i&gt;Database&lt;/i&gt;&lt;/b&gt;" style="rounded=1;whiteSpace=wrap;html=1;" parent="1" vertex="1">
          <mxGeometry x="630" y="1520" width="120" height="40" as="geometry" />
        </mxCell>
        <mxCell id="lLUH3YidAdsCZCi5Clt2-40" value="JooQ" style="rounded=1;whiteSpace=wrap;html=1;" parent="1" vertex="1">
          <mxGeometry x="920" y="1580" width="120" height="30" as="geometry" />
        </mxCell>
        <mxCell id="lLUH3YidAdsCZCi5Clt2-41" value="JDBC" style="rounded=1;whiteSpace=wrap;html=1;" parent="1" vertex="1">
          <mxGeometry x="920" y="1520" width="120" height="30" as="geometry" />
        </mxCell>
        <mxCell id="lLUH3YidAdsCZCi5Clt2-42" value="" style="endArrow=none;dashed=1;html=1;dashPattern=1 3;strokeWidth=2;rounded=0;edgeStyle=orthogonalEdgeStyle;curved=1;entryX=0.5;entryY=1;entryDx=0;entryDy=0;exitX=0;exitY=0;exitDx=0;exitDy=0;" parent="1" source="Q0yMT5RCZBhQiYAW3Fju-71" target="Q0yMT5RCZBhQiYAW3Fju-72" edge="1">
          <mxGeometry width="50" height="50" relative="1" as="geometry">
            <mxPoint x="810" y="370" as="sourcePoint" />
            <mxPoint x="860" y="320" as="targetPoint" />
          </mxGeometry>
        </mxCell>
        <mxCell id="lLUH3YidAdsCZCi5Clt2-43" value="" style="endArrow=none;dashed=1;html=1;dashPattern=1 3;strokeWidth=2;rounded=0;curved=1;edgeStyle=orthogonalEdgeStyle;entryX=0.5;entryY=1;entryDx=0;entryDy=0;exitX=0.25;exitY=0;exitDx=0;exitDy=0;" parent="1" source="Q0yMT5RCZBhQiYAW3Fju-71" target="Q0yMT5RCZBhQiYAW3Fju-73" edge="1">
          <mxGeometry width="50" height="50" relative="1" as="geometry">
            <mxPoint x="810" y="370" as="sourcePoint" />
            <mxPoint x="860" y="320" as="targetPoint" />
          </mxGeometry>
        </mxCell>
        <mxCell id="lLUH3YidAdsCZCi5Clt2-44" value="" style="endArrow=none;dashed=1;html=1;dashPattern=1 3;strokeWidth=2;rounded=0;curved=1;edgeStyle=orthogonalEdgeStyle;entryX=0.5;entryY=1;entryDx=0;entryDy=0;exitX=0.61;exitY=-0.083;exitDx=0;exitDy=0;exitPerimeter=0;" parent="1" source="Q0yMT5RCZBhQiYAW3Fju-71" target="Q0yMT5RCZBhQiYAW3Fju-74" edge="1">
          <mxGeometry width="50" height="50" relative="1" as="geometry">
            <mxPoint x="810" y="370" as="sourcePoint" />
            <mxPoint x="860" y="320" as="targetPoint" />
          </mxGeometry>
        </mxCell>
        <mxCell id="lLUH3YidAdsCZCi5Clt2-45" value="" style="endArrow=none;dashed=1;html=1;dashPattern=1 3;strokeWidth=2;rounded=0;curved=1;edgeStyle=orthogonalEdgeStyle;entryX=0.5;entryY=1;entryDx=0;entryDy=0;exitX=1;exitY=0;exitDx=0;exitDy=0;" parent="1" source="Q0yMT5RCZBhQiYAW3Fju-71" target="Q0yMT5RCZBhQiYAW3Fju-75" edge="1">
          <mxGeometry width="50" height="50" relative="1" as="geometry">
            <mxPoint x="810" y="370" as="sourcePoint" />
            <mxPoint x="860" y="320" as="targetPoint" />
          </mxGeometry>
        </mxCell>
        <mxCell id="lLUH3YidAdsCZCi5Clt2-46" value="" style="endArrow=none;html=1;rounded=0;edgeStyle=orthogonalEdgeStyle;entryX=0.5;entryY=1;entryDx=0;entryDy=0;exitX=1;exitY=0.5;exitDx=0;exitDy=0;" parent="1" source="Q0yMT5RCZBhQiYAW3Fju-5" target="Q0yMT5RCZBhQiYAW3Fju-71" edge="1">
          <mxGeometry width="50" height="50" relative="1" as="geometry">
            <mxPoint x="810" y="370" as="sourcePoint" />
            <mxPoint x="860" y="320" as="targetPoint" />
            <Array as="points">
              <mxPoint x="690" y="360" />
              <mxPoint x="1010" y="360" />
            </Array>
          </mxGeometry>
        </mxCell>
        <mxCell id="lLUH3YidAdsCZCi5Clt2-47" value="" style="endArrow=none;html=1;rounded=0;edgeStyle=orthogonalEdgeStyle;" parent="1" edge="1">
          <mxGeometry width="50" height="50" relative="1" as="geometry">
            <mxPoint x="690" y="390" as="sourcePoint" />
            <mxPoint x="1150" y="390" as="targetPoint" />
            <Array as="points">
              <mxPoint x="690" y="410" />
              <mxPoint x="900" y="410" />
              <mxPoint x="900" y="393" />
            </Array>
          </mxGeometry>
        </mxCell>
        <mxCell id="lLUH3YidAdsCZCi5Clt2-48" value="" style="endArrow=none;html=1;rounded=0;edgeStyle=orthogonalEdgeStyle;exitX=0.5;exitY=1;exitDx=0;exitDy=0;entryX=0.5;entryY=0;entryDx=0;entryDy=0;" parent="1" source="Q0yMT5RCZBhQiYAW3Fju-5" target="Q0yMT5RCZBhQiYAW3Fju-81" edge="1">
          <mxGeometry width="50" height="50" relative="1" as="geometry">
            <mxPoint x="810" y="370" as="sourcePoint" />
            <mxPoint x="860" y="320" as="targetPoint" />
          </mxGeometry>
        </mxCell>
        <mxCell id="lLUH3YidAdsCZCi5Clt2-51" value="" style="endArrow=none;dashed=1;html=1;dashPattern=1 3;strokeWidth=2;rounded=0;edgeStyle=orthogonalEdgeStyle;curved=1;entryX=0;entryY=0.25;entryDx=0;entryDy=0;exitX=0.25;exitY=0;exitDx=0;exitDy=0;" parent="1" source="Q0yMT5RCZBhQiYAW3Fju-76" target="Q0yMT5RCZBhQiYAW3Fju-77" edge="1">
          <mxGeometry width="50" height="50" relative="1" as="geometry">
            <mxPoint x="1130" y="360" as="sourcePoint" />
            <mxPoint x="1200" y="300" as="targetPoint" />
          </mxGeometry>
        </mxCell>
        <mxCell id="lLUH3YidAdsCZCi5Clt2-52" value="" style="endArrow=none;dashed=1;html=1;dashPattern=1 3;strokeWidth=2;rounded=0;curved=1;edgeStyle=orthogonalEdgeStyle;entryX=0;entryY=0.5;entryDx=0;entryDy=0;" parent="1" target="Q0yMT5RCZBhQiYAW3Fju-80" edge="1">
          <mxGeometry width="50" height="50" relative="1" as="geometry">
            <mxPoint x="1140" y="390" as="sourcePoint" />
            <mxPoint x="860" y="320" as="targetPoint" />
            <Array as="points">
              <mxPoint x="1140" y="420" />
              <mxPoint x="1200" y="420" />
              <mxPoint x="1200" y="425" />
            </Array>
          </mxGeometry>
        </mxCell>
        <mxCell id="lLUH3YidAdsCZCi5Clt2-53" value="" style="endArrow=none;dashed=1;html=1;dashPattern=1 3;strokeWidth=2;rounded=0;curved=1;edgeStyle=orthogonalEdgeStyle;entryX=0;entryY=0.25;entryDx=0;entryDy=0;exitX=0.67;exitY=-0.05;exitDx=0;exitDy=0;exitPerimeter=0;" parent="1" source="Q0yMT5RCZBhQiYAW3Fju-76" target="Q0yMT5RCZBhQiYAW3Fju-78" edge="1">
          <mxGeometry width="50" height="50" relative="1" as="geometry">
            <mxPoint x="810" y="370" as="sourcePoint" />
            <mxPoint x="860" y="320" as="targetPoint" />
          </mxGeometry>
        </mxCell>
        <mxCell id="lLUH3YidAdsCZCi5Clt2-54" value="" style="endArrow=none;dashed=1;html=1;dashPattern=1 3;strokeWidth=2;rounded=0;curved=1;edgeStyle=orthogonalEdgeStyle;entryX=0;entryY=1;entryDx=0;entryDy=0;exitX=0.75;exitY=1;exitDx=0;exitDy=0;" parent="1" source="Q0yMT5RCZBhQiYAW3Fju-76" target="Q0yMT5RCZBhQiYAW3Fju-79" edge="1">
          <mxGeometry width="50" height="50" relative="1" as="geometry">
            <mxPoint x="810" y="370" as="sourcePoint" />
            <mxPoint x="860" y="320" as="targetPoint" />
          </mxGeometry>
        </mxCell>
        <mxCell id="lLUH3YidAdsCZCi5Clt2-55" value="" style="endArrow=none;dashed=1;html=1;dashPattern=1 3;strokeWidth=2;rounded=0;curved=1;edgeStyle=orthogonalEdgeStyle;exitX=0.5;exitY=1;exitDx=0;exitDy=0;entryX=0;entryY=0.5;entryDx=0;entryDy=0;" parent="1" source="Q0yMT5RCZBhQiYAW3Fju-81" target="Q0yMT5RCZBhQiYAW3Fju-82" edge="1">
          <mxGeometry width="50" height="50" relative="1" as="geometry">
            <mxPoint x="670" y="600" as="sourcePoint" />
            <mxPoint x="720" y="550" as="targetPoint" />
          </mxGeometry>
        </mxCell>
        <mxCell id="lLUH3YidAdsCZCi5Clt2-56" value="" style="endArrow=none;dashed=1;html=1;dashPattern=1 3;strokeWidth=2;rounded=0;curved=1;edgeStyle=orthogonalEdgeStyle;exitX=0.357;exitY=1.078;exitDx=0;exitDy=0;exitPerimeter=0;entryX=0;entryY=0.5;entryDx=0;entryDy=0;" parent="1" source="Q0yMT5RCZBhQiYAW3Fju-81" target="Q0yMT5RCZBhQiYAW3Fju-83" edge="1">
          <mxGeometry width="50" height="50" relative="1" as="geometry">
            <mxPoint x="680" y="610" as="sourcePoint" />
            <mxPoint x="730" y="560" as="targetPoint" />
          </mxGeometry>
        </mxCell>
        <mxCell id="lLUH3YidAdsCZCi5Clt2-57" value="" style="endArrow=none;dashed=1;html=1;dashPattern=1 3;strokeWidth=2;rounded=0;curved=1;edgeStyle=orthogonalEdgeStyle;exitX=0.25;exitY=1;exitDx=0;exitDy=0;entryX=0;entryY=0.5;entryDx=0;entryDy=0;" parent="1" source="Q0yMT5RCZBhQiYAW3Fju-81" target="Q0yMT5RCZBhQiYAW3Fju-84" edge="1">
          <mxGeometry width="50" height="50" relative="1" as="geometry">
            <mxPoint x="690" y="620" as="sourcePoint" />
            <mxPoint x="740" y="570" as="targetPoint" />
          </mxGeometry>
        </mxCell>
        <mxCell id="lLUH3YidAdsCZCi5Clt2-58" value="" style="endArrow=none;dashed=1;html=1;dashPattern=1 3;strokeWidth=2;rounded=0;curved=1;edgeStyle=orthogonalEdgeStyle;exitX=0.103;exitY=1.211;exitDx=0;exitDy=0;exitPerimeter=0;entryX=0;entryY=0.5;entryDx=0;entryDy=0;" parent="1" source="Q0yMT5RCZBhQiYAW3Fju-81" target="Q0yMT5RCZBhQiYAW3Fju-85" edge="1">
          <mxGeometry width="50" height="50" relative="1" as="geometry">
            <mxPoint x="700" y="630" as="sourcePoint" />
            <mxPoint x="750" y="580" as="targetPoint" />
          </mxGeometry>
        </mxCell>
        <mxCell id="lLUH3YidAdsCZCi5Clt2-59" value="" style="endArrow=none;dashed=1;html=1;dashPattern=1 3;strokeWidth=2;rounded=0;curved=1;edgeStyle=orthogonalEdgeStyle;entryX=0;entryY=1;entryDx=0;entryDy=0;exitX=0;exitY=0.5;exitDx=0;exitDy=0;" parent="1" source="Q0yMT5RCZBhQiYAW3Fju-88" target="Q0yMT5RCZBhQiYAW3Fju-81" edge="1">
          <mxGeometry width="50" height="50" relative="1" as="geometry">
            <mxPoint x="710" y="640" as="sourcePoint" />
            <mxPoint x="760" y="590" as="targetPoint" />
          </mxGeometry>
        </mxCell>
        <mxCell id="lLUH3YidAdsCZCi5Clt2-60" value="" style="endArrow=none;dashed=1;html=1;dashPattern=1 3;strokeWidth=2;rounded=0;curved=1;edgeStyle=orthogonalEdgeStyle;entryX=0.925;entryY=1.078;entryDx=0;entryDy=0;entryPerimeter=0;exitX=0;exitY=0.75;exitDx=0;exitDy=0;" parent="1" source="Q0yMT5RCZBhQiYAW3Fju-95" target="Q0yMT5RCZBhQiYAW3Fju-89" edge="1">
          <mxGeometry width="50" height="50" relative="1" as="geometry">
            <mxPoint x="720" y="650" as="sourcePoint" />
            <mxPoint x="770" y="600" as="targetPoint" />
          </mxGeometry>
        </mxCell>
        <mxCell id="lLUH3YidAdsCZCi5Clt2-61" value="" style="endArrow=none;dashed=1;html=1;dashPattern=1 3;strokeWidth=2;rounded=0;curved=1;edgeStyle=orthogonalEdgeStyle;entryX=0.75;entryY=1;entryDx=0;entryDy=0;exitX=0;exitY=0.5;exitDx=0;exitDy=0;" parent="1" source="Q0yMT5RCZBhQiYAW3Fju-94" target="Q0yMT5RCZBhQiYAW3Fju-89" edge="1">
          <mxGeometry width="50" height="50" relative="1" as="geometry">
            <mxPoint x="730" y="660" as="sourcePoint" />
            <mxPoint x="780" y="610" as="targetPoint" />
          </mxGeometry>
        </mxCell>
        <mxCell id="lLUH3YidAdsCZCi5Clt2-62" value="" style="endArrow=none;dashed=1;html=1;dashPattern=1 3;strokeWidth=2;rounded=0;curved=1;edgeStyle=orthogonalEdgeStyle;entryX=0.625;entryY=1.211;entryDx=0;entryDy=0;entryPerimeter=0;exitX=0;exitY=0.5;exitDx=0;exitDy=0;" parent="1" source="Q0yMT5RCZBhQiYAW3Fju-93" target="Q0yMT5RCZBhQiYAW3Fju-89" edge="1">
          <mxGeometry width="50" height="50" relative="1" as="geometry">
            <mxPoint x="740" y="670" as="sourcePoint" />
            <mxPoint x="790" y="620" as="targetPoint" />
          </mxGeometry>
        </mxCell>
        <mxCell id="lLUH3YidAdsCZCi5Clt2-63" value="" style="endArrow=none;dashed=1;html=1;dashPattern=1 3;strokeWidth=2;rounded=0;curved=1;edgeStyle=orthogonalEdgeStyle;entryX=0.5;entryY=1;entryDx=0;entryDy=0;exitX=0;exitY=0.5;exitDx=0;exitDy=0;" parent="1" source="Q0yMT5RCZBhQiYAW3Fju-92" target="Q0yMT5RCZBhQiYAW3Fju-89" edge="1">
          <mxGeometry width="50" height="50" relative="1" as="geometry">
            <mxPoint x="750" y="680" as="sourcePoint" />
            <mxPoint x="800" y="630" as="targetPoint" />
          </mxGeometry>
        </mxCell>
        <mxCell id="lLUH3YidAdsCZCi5Clt2-64" value="" style="endArrow=none;dashed=1;html=1;dashPattern=1 3;strokeWidth=2;rounded=0;curved=1;edgeStyle=orthogonalEdgeStyle;entryX=0.381;entryY=1.167;entryDx=0;entryDy=0;entryPerimeter=0;exitX=0;exitY=0.25;exitDx=0;exitDy=0;" parent="1" source="Q0yMT5RCZBhQiYAW3Fju-91" target="Q0yMT5RCZBhQiYAW3Fju-89" edge="1">
          <mxGeometry width="50" height="50" relative="1" as="geometry">
            <mxPoint x="760" y="690" as="sourcePoint" />
            <mxPoint x="810" y="640" as="targetPoint" />
          </mxGeometry>
        </mxCell>
        <mxCell id="lLUH3YidAdsCZCi5Clt2-66" value="" style="endArrow=none;dashed=1;html=1;dashPattern=1 3;strokeWidth=2;rounded=0;curved=1;edgeStyle=orthogonalEdgeStyle;entryX=0.25;entryY=1;entryDx=0;entryDy=0;exitX=0;exitY=0.5;exitDx=0;exitDy=0;" parent="1" source="Q0yMT5RCZBhQiYAW3Fju-90" target="Q0yMT5RCZBhQiYAW3Fju-89" edge="1">
          <mxGeometry width="50" height="50" relative="1" as="geometry">
            <mxPoint x="770" y="700" as="sourcePoint" />
            <mxPoint x="820" y="650" as="targetPoint" />
          </mxGeometry>
        </mxCell>
        <mxCell id="lLUH3YidAdsCZCi5Clt2-67" value="" style="endArrow=none;html=1;rounded=0;edgeStyle=orthogonalEdgeStyle;entryX=0.5;entryY=1;entryDx=0;entryDy=0;" parent="1" target="Q0yMT5RCZBhQiYAW3Fju-129" edge="1">
          <mxGeometry width="50" height="50" relative="1" as="geometry">
            <mxPoint x="1050" y="870" as="sourcePoint" />
            <mxPoint x="720" y="700" as="targetPoint" />
          </mxGeometry>
        </mxCell>
        <mxCell id="lLUH3YidAdsCZCi5Clt2-70" value="" style="endArrow=classic;html=1;rounded=0;exitX=0.5;exitY=1;exitDx=0;exitDy=0;entryX=0.5;entryY=0;entryDx=0;entryDy=0;" parent="1" source="Q0yMT5RCZBhQiYAW3Fju-136" target="Q0yMT5RCZBhQiYAW3Fju-134" edge="1">
          <mxGeometry width="50" height="50" relative="1" as="geometry">
            <mxPoint x="580" y="770" as="sourcePoint" />
            <mxPoint x="930" y="870" as="targetPoint" />
          </mxGeometry>
        </mxCell>
        <mxCell id="lLUH3YidAdsCZCi5Clt2-71" value="" style="endArrow=none;dashed=1;html=1;dashPattern=1 3;strokeWidth=2;rounded=0;edgeStyle=orthogonalEdgeStyle;curved=1;exitX=0.202;exitY=1.167;exitDx=0;exitDy=0;exitPerimeter=0;entryX=0.5;entryY=0;entryDx=0;entryDy=0;" parent="1" source="Q0yMT5RCZBhQiYAW3Fju-125" target="Q0yMT5RCZBhQiYAW3Fju-126" edge="1">
          <mxGeometry width="50" height="50" relative="1" as="geometry">
            <mxPoint x="670" y="750" as="sourcePoint" />
            <mxPoint x="720" y="700" as="targetPoint" />
          </mxGeometry>
        </mxCell>
        <mxCell id="lLUH3YidAdsCZCi5Clt2-72" value="" style="endArrow=none;dashed=1;html=1;dashPattern=1 3;strokeWidth=2;rounded=0;edgeStyle=orthogonalEdgeStyle;curved=1;exitX=0.5;exitY=1;exitDx=0;exitDy=0;entryX=0.5;entryY=0;entryDx=0;entryDy=0;" parent="1" source="Q0yMT5RCZBhQiYAW3Fju-125" target="Q0yMT5RCZBhQiYAW3Fju-128" edge="1">
          <mxGeometry width="50" height="50" relative="1" as="geometry">
            <mxPoint x="680" y="760" as="sourcePoint" />
            <mxPoint x="730" y="710" as="targetPoint" />
          </mxGeometry>
        </mxCell>
        <mxCell id="lLUH3YidAdsCZCi5Clt2-73" value="" style="endArrow=none;dashed=1;html=1;dashPattern=1 3;strokeWidth=2;rounded=0;edgeStyle=orthogonalEdgeStyle;curved=1;exitX=0.857;exitY=1.167;exitDx=0;exitDy=0;exitPerimeter=0;entryX=0.5;entryY=0;entryDx=0;entryDy=0;" parent="1" source="Q0yMT5RCZBhQiYAW3Fju-125" target="Q0yMT5RCZBhQiYAW3Fju-127" edge="1">
          <mxGeometry width="50" height="50" relative="1" as="geometry">
            <mxPoint x="690" y="770" as="sourcePoint" />
            <mxPoint x="740" y="720" as="targetPoint" />
          </mxGeometry>
        </mxCell>
        <mxCell id="lLUH3YidAdsCZCi5Clt2-74" value="" style="endArrow=none;html=1;rounded=0;curved=1;edgeStyle=orthogonalEdgeStyle;exitX=0.5;exitY=0;exitDx=0;exitDy=0;entryX=0;entryY=0.25;entryDx=0;entryDy=0;" parent="1" source="lLUH3YidAdsCZCi5Clt2-13" target="lLUH3YidAdsCZCi5Clt2-14" edge="1">
          <mxGeometry width="50" height="50" relative="1" as="geometry">
            <mxPoint x="670" y="1210" as="sourcePoint" />
            <mxPoint x="720" y="1160" as="targetPoint" />
          </mxGeometry>
        </mxCell>
        <mxCell id="lLUH3YidAdsCZCi5Clt2-75" value="" style="endArrow=none;html=1;rounded=0;curved=1;edgeStyle=orthogonalEdgeStyle;exitX=1;exitY=0.75;exitDx=0;exitDy=0;entryX=0;entryY=0.5;entryDx=0;entryDy=0;" parent="1" source="lLUH3YidAdsCZCi5Clt2-13" target="lLUH3YidAdsCZCi5Clt2-21" edge="1">
          <mxGeometry width="50" height="50" relative="1" as="geometry">
            <mxPoint x="660" y="1180" as="sourcePoint" />
            <mxPoint x="805" y="1087.5" as="targetPoint" />
          </mxGeometry>
        </mxCell>
        <mxCell id="lLUH3YidAdsCZCi5Clt2-76" value="" style="endArrow=none;html=1;rounded=0;curved=1;edgeStyle=orthogonalEdgeStyle;exitX=0.5;exitY=1;exitDx=0;exitDy=0;entryX=0.646;entryY=0.011;entryDx=0;entryDy=0;entryPerimeter=0;" parent="1" source="lLUH3YidAdsCZCi5Clt2-13" target="lLUH3YidAdsCZCi5Clt2-25" edge="1">
          <mxGeometry width="50" height="50" relative="1" as="geometry">
            <mxPoint x="670" y="1190" as="sourcePoint" />
            <mxPoint x="670" y="1380" as="targetPoint" />
          </mxGeometry>
        </mxCell>
        <mxCell id="lLUH3YidAdsCZCi5Clt2-77" value="" style="endArrow=none;dashed=1;html=1;dashPattern=1 3;strokeWidth=2;rounded=0;edgeStyle=orthogonalEdgeStyle;curved=1;entryX=0.354;entryY=0.056;entryDx=0;entryDy=0;entryPerimeter=0;exitX=0;exitY=0.336;exitDx=0;exitDy=0;exitPerimeter=0;" parent="1" source="lLUH3YidAdsCZCi5Clt2-19" target="lLUH3YidAdsCZCi5Clt2-14" edge="1">
          <mxGeometry width="50" height="50" relative="1" as="geometry">
            <mxPoint x="1110" y="1030" as="sourcePoint" />
            <mxPoint x="860" y="950" as="targetPoint" />
          </mxGeometry>
        </mxCell>
        <mxCell id="lLUH3YidAdsCZCi5Clt2-78" value="" style="endArrow=none;dashed=1;html=1;dashPattern=1 3;strokeWidth=2;rounded=0;edgeStyle=orthogonalEdgeStyle;curved=1;exitX=0;exitY=0.25;exitDx=0;exitDy=0;entryX=0.75;entryY=0;entryDx=0;entryDy=0;" parent="1" source="lLUH3YidAdsCZCi5Clt2-18" target="lLUH3YidAdsCZCi5Clt2-14" edge="1">
          <mxGeometry width="50" height="50" relative="1" as="geometry">
            <mxPoint x="786.4050000000002" y="925.01" as="sourcePoint" />
            <mxPoint x="870" y="960" as="targetPoint" />
          </mxGeometry>
        </mxCell>
        <mxCell id="lLUH3YidAdsCZCi5Clt2-79" value="" style="endArrow=none;dashed=1;html=1;dashPattern=1 3;strokeWidth=2;rounded=0;edgeStyle=orthogonalEdgeStyle;curved=1;entryX=0.867;entryY=1.122;entryDx=0;entryDy=0;entryPerimeter=0;" parent="1" target="lLUH3YidAdsCZCi5Clt2-14" edge="1">
          <mxGeometry width="50" height="50" relative="1" as="geometry">
            <mxPoint x="1110" y="1120" as="sourcePoint" />
            <mxPoint x="902.5" y="1080" as="targetPoint" />
          </mxGeometry>
        </mxCell>
        <mxCell id="lLUH3YidAdsCZCi5Clt2-80" value="" style="endArrow=none;dashed=1;html=1;dashPattern=1 3;strokeWidth=2;rounded=0;edgeStyle=orthogonalEdgeStyle;curved=1;exitX=0;exitY=0.5;exitDx=0;exitDy=0;entryX=0.682;entryY=1.078;entryDx=0;entryDy=0;entryPerimeter=0;" parent="1" source="lLUH3YidAdsCZCi5Clt2-16" target="lLUH3YidAdsCZCi5Clt2-14" edge="1">
          <mxGeometry width="50" height="50" relative="1" as="geometry">
            <mxPoint x="1140" y="1087.5" as="sourcePoint" />
            <mxPoint x="912.5" y="1090" as="targetPoint" />
          </mxGeometry>
        </mxCell>
        <mxCell id="lLUH3YidAdsCZCi5Clt2-81" value="" style="endArrow=none;dashed=1;html=1;dashPattern=1 3;strokeWidth=2;rounded=0;edgeStyle=orthogonalEdgeStyle;curved=1;exitX=0;exitY=0.5;exitDx=0;exitDy=0;entryX=0.436;entryY=1.078;entryDx=0;entryDy=0;entryPerimeter=0;" parent="1" source="lLUH3YidAdsCZCi5Clt2-15" target="lLUH3YidAdsCZCi5Clt2-14" edge="1">
          <mxGeometry width="50" height="50" relative="1" as="geometry">
            <mxPoint x="1150" y="1097.5" as="sourcePoint" />
            <mxPoint x="922.5" y="1100" as="targetPoint" />
          </mxGeometry>
        </mxCell>
        <mxCell id="lLUH3YidAdsCZCi5Clt2-82" value="" style="endArrow=none;dashed=1;html=1;dashPattern=1 3;strokeWidth=2;rounded=0;edgeStyle=orthogonalEdgeStyle;curved=1;exitX=0.25;exitY=1;exitDx=0;exitDy=0;" parent="1" source="lLUH3YidAdsCZCi5Clt2-20" target="lLUH3YidAdsCZCi5Clt2-21" edge="1">
          <mxGeometry width="50" height="50" relative="1" as="geometry">
            <mxPoint x="1160" y="1107.5" as="sourcePoint" />
            <mxPoint x="932.5" y="1110" as="targetPoint" />
          </mxGeometry>
        </mxCell>
        <mxCell id="lLUH3YidAdsCZCi5Clt2-83" value="" style="endArrow=none;dashed=1;html=1;dashPattern=1 3;strokeWidth=2;rounded=0;edgeStyle=orthogonalEdgeStyle;curved=1;exitX=0;exitY=0.75;exitDx=0;exitDy=0;entryX=1;entryY=0.5;entryDx=0;entryDy=0;" parent="1" source="lLUH3YidAdsCZCi5Clt2-24" target="lLUH3YidAdsCZCi5Clt2-25" edge="1">
          <mxGeometry width="50" height="50" relative="1" as="geometry">
            <mxPoint x="1082.5" y="1335" as="sourcePoint" />
            <mxPoint x="960" y="1280.0666666666666" as="targetPoint" />
          </mxGeometry>
        </mxCell>
        <mxCell id="lLUH3YidAdsCZCi5Clt2-84" value="" style="endArrow=none;dashed=1;html=1;dashPattern=1 3;strokeWidth=2;rounded=0;edgeStyle=orthogonalEdgeStyle;curved=1;exitX=0;exitY=0.5;exitDx=0;exitDy=0;entryX=0.882;entryY=1.078;entryDx=0;entryDy=0;entryPerimeter=0;" parent="1" source="lLUH3YidAdsCZCi5Clt2-23" target="lLUH3YidAdsCZCi5Clt2-25" edge="1">
          <mxGeometry width="50" height="50" relative="1" as="geometry">
            <mxPoint x="1092.5" y="1345" as="sourcePoint" />
            <mxPoint x="970" y="1290.0666666666666" as="targetPoint" />
          </mxGeometry>
        </mxCell>
        <mxCell id="lLUH3YidAdsCZCi5Clt2-85" value="" style="endArrow=none;dashed=1;html=1;dashPattern=1 3;strokeWidth=2;rounded=0;edgeStyle=orthogonalEdgeStyle;curved=1;exitX=0;exitY=0.5;exitDx=0;exitDy=0;" parent="1" source="lLUH3YidAdsCZCi5Clt2-40" target="lLUH3YidAdsCZCi5Clt2-39" edge="1">
          <mxGeometry width="50" height="50" relative="1" as="geometry">
            <mxPoint x="1102.5" y="1355" as="sourcePoint" />
            <mxPoint x="980" y="1300.0666666666666" as="targetPoint" />
          </mxGeometry>
        </mxCell>
        <mxCell id="lLUH3YidAdsCZCi5Clt2-86" value="" style="endArrow=none;dashed=1;html=1;dashPattern=1 3;strokeWidth=2;rounded=0;curved=1;edgeStyle=orthogonalEdgeStyle;exitX=0.341;exitY=-0.043;exitDx=0;exitDy=0;exitPerimeter=0;" parent="1" source="Q0yMT5RCZBhQiYAW3Fju-102" target="Q0yMT5RCZBhQiYAW3Fju-99" edge="1">
          <mxGeometry width="50" height="50" relative="1" as="geometry">
            <mxPoint x="-200" y="630" as="sourcePoint" />
            <mxPoint x="280" y="680" as="targetPoint" />
            <Array as="points">
              <mxPoint x="-196" y="630" />
              <mxPoint x="-30" y="630" />
            </Array>
          </mxGeometry>
        </mxCell>
        <mxCell id="lLUH3YidAdsCZCi5Clt2-90" value="" style="endArrow=none;dashed=1;html=1;dashPattern=1 3;strokeWidth=2;rounded=0;curved=1;edgeStyle=orthogonalEdgeStyle;entryX=0.44;entryY=1.063;entryDx=0;entryDy=0;entryPerimeter=0;exitX=0.637;exitY=-0.043;exitDx=0;exitDy=0;exitPerimeter=0;" parent="1" source="Q0yMT5RCZBhQiYAW3Fju-104" target="Q0yMT5RCZBhQiYAW3Fju-99" edge="1">
          <mxGeometry width="50" height="50" relative="1" as="geometry">
            <mxPoint x="150" y="840" as="sourcePoint" />
            <mxPoint x="200" y="790" as="targetPoint" />
          </mxGeometry>
        </mxCell>
        <mxCell id="lLUH3YidAdsCZCi5Clt2-91" value="" style="endArrow=none;dashed=1;html=1;dashPattern=1 3;strokeWidth=2;rounded=0;curved=1;edgeStyle=orthogonalEdgeStyle;entryX=0.846;entryY=1.12;entryDx=0;entryDy=0;entryPerimeter=0;exitX=0.5;exitY=0;exitDx=0;exitDy=0;" parent="1" source="Q0yMT5RCZBhQiYAW3Fju-103" target="Q0yMT5RCZBhQiYAW3Fju-99" edge="1">
          <mxGeometry width="50" height="50" relative="1" as="geometry">
            <mxPoint x="150" y="840" as="sourcePoint" />
            <mxPoint x="200" y="790" as="targetPoint" />
          </mxGeometry>
        </mxCell>
        <mxCell id="lLUH3YidAdsCZCi5Clt2-93" value="" style="endArrow=none;html=1;rounded=0;curved=1;edgeStyle=orthogonalEdgeStyle;entryX=0.44;entryY=1.052;entryDx=0;entryDy=0;entryPerimeter=0;" parent="1" source="Q0yMT5RCZBhQiYAW3Fju-106" target="Q0yMT5RCZBhQiYAW3Fju-104" edge="1">
          <mxGeometry width="50" height="50" relative="1" as="geometry">
            <mxPoint x="150" y="840" as="sourcePoint" />
            <mxPoint x="200" y="790" as="targetPoint" />
          </mxGeometry>
        </mxCell>
        <mxCell id="lLUH3YidAdsCZCi5Clt2-94" value="" style="endArrow=none;html=1;rounded=0;curved=1;edgeStyle=orthogonalEdgeStyle;entryX=0.25;entryY=1;entryDx=0;entryDy=0;exitX=0.421;exitY=-0.138;exitDx=0;exitDy=0;exitPerimeter=0;" parent="1" source="Q0yMT5RCZBhQiYAW3Fju-111" target="Q0yMT5RCZBhQiYAW3Fju-104" edge="1">
          <mxGeometry width="50" height="50" relative="1" as="geometry">
            <mxPoint x="5" y="720" as="sourcePoint" />
            <mxPoint x="-2.799999999999727" y="681.56" as="targetPoint" />
            <Array as="points">
              <mxPoint x="-280" y="786" />
              <mxPoint x="-280" y="710" />
              <mxPoint x="-37" y="710" />
            </Array>
          </mxGeometry>
        </mxCell>
        <mxCell id="lLUH3YidAdsCZCi5Clt2-95" value="" style="endArrow=none;dashed=1;html=1;dashPattern=1 3;strokeWidth=2;rounded=0;curved=1;edgeStyle=orthogonalEdgeStyle;entryX=1;entryY=0;entryDx=0;entryDy=0;exitX=0;exitY=0.5;exitDx=0;exitDy=0;" parent="1" source="Q0yMT5RCZBhQiYAW3Fju-109" target="Q0yMT5RCZBhQiYAW3Fju-106" edge="1">
          <mxGeometry width="50" height="50" relative="1" as="geometry">
            <mxPoint x="150" y="840" as="sourcePoint" />
            <mxPoint x="200" y="790" as="targetPoint" />
          </mxGeometry>
        </mxCell>
        <mxCell id="lLUH3YidAdsCZCi5Clt2-96" value="" style="endArrow=none;dashed=1;html=1;dashPattern=1 3;strokeWidth=2;rounded=0;curved=1;edgeStyle=orthogonalEdgeStyle;entryX=1;entryY=0.333;entryDx=0;entryDy=0;exitX=0;exitY=0.5;exitDx=0;exitDy=0;entryPerimeter=0;" parent="1" source="Q0yMT5RCZBhQiYAW3Fju-107" target="Q0yMT5RCZBhQiYAW3Fju-106" edge="1">
          <mxGeometry width="50" height="50" relative="1" as="geometry">
            <mxPoint x="190" y="745" as="sourcePoint" />
            <mxPoint x="90" y="720" as="targetPoint" />
          </mxGeometry>
        </mxCell>
        <mxCell id="lLUH3YidAdsCZCi5Clt2-97" value="" style="endArrow=none;dashed=1;html=1;dashPattern=1 3;strokeWidth=2;rounded=0;curved=1;edgeStyle=orthogonalEdgeStyle;entryX=1;entryY=0.75;entryDx=0;entryDy=0;exitX=0;exitY=0.5;exitDx=0;exitDy=0;" parent="1" source="Q0yMT5RCZBhQiYAW3Fju-108" target="Q0yMT5RCZBhQiYAW3Fju-106" edge="1">
          <mxGeometry width="50" height="50" relative="1" as="geometry">
            <mxPoint x="200" y="755" as="sourcePoint" />
            <mxPoint x="100" y="730" as="targetPoint" />
          </mxGeometry>
        </mxCell>
        <mxCell id="lLUH3YidAdsCZCi5Clt2-98" value="" style="endArrow=none;dashed=1;html=1;dashPattern=1 3;strokeWidth=2;rounded=0;curved=1;edgeStyle=orthogonalEdgeStyle;exitX=0.611;exitY=1.1;exitDx=0;exitDy=0;exitPerimeter=0;entryX=0.5;entryY=0;entryDx=0;entryDy=0;" parent="1" source="Q0yMT5RCZBhQiYAW3Fju-110" target="Q0yMT5RCZBhQiYAW3Fju-124" edge="1">
          <mxGeometry width="50" height="50" relative="1" as="geometry">
            <mxPoint x="150" y="840" as="sourcePoint" />
            <mxPoint x="200" y="790" as="targetPoint" />
          </mxGeometry>
        </mxCell>
        <mxCell id="lLUH3YidAdsCZCi5Clt2-99" value="" style="endArrow=none;dashed=1;html=1;dashPattern=1 3;strokeWidth=2;rounded=0;curved=1;edgeStyle=orthogonalEdgeStyle;exitX=0.317;exitY=1.1;exitDx=0;exitDy=0;exitPerimeter=0;entryX=0.5;entryY=0;entryDx=0;entryDy=0;" parent="1" source="Q0yMT5RCZBhQiYAW3Fju-110" target="Q0yMT5RCZBhQiYAW3Fju-119" edge="1">
          <mxGeometry width="50" height="50" relative="1" as="geometry">
            <mxPoint x="29.980000000000018" y="882.9999999999998" as="sourcePoint" />
            <mxPoint x="105" y="940" as="targetPoint" />
          </mxGeometry>
        </mxCell>
        <mxCell id="lLUH3YidAdsCZCi5Clt2-100" value="" style="endArrow=none;dashed=1;html=1;dashPattern=1 3;strokeWidth=2;rounded=0;curved=1;edgeStyle=orthogonalEdgeStyle;exitX=0.25;exitY=1;exitDx=0;exitDy=0;entryX=0.5;entryY=0;entryDx=0;entryDy=0;" parent="1" source="Q0yMT5RCZBhQiYAW3Fju-111" target="Q0yMT5RCZBhQiYAW3Fju-114" edge="1">
          <mxGeometry width="50" height="50" relative="1" as="geometry">
            <mxPoint x="-22.940000000000055" y="882.9999999999998" as="sourcePoint" />
            <mxPoint x="-44.99999999999977" y="940" as="targetPoint" />
          </mxGeometry>
        </mxCell>
        <mxCell id="lLUH3YidAdsCZCi5Clt2-101" value="" style="endArrow=none;dashed=1;html=1;dashPattern=1 3;strokeWidth=2;rounded=0;curved=1;edgeStyle=orthogonalEdgeStyle;exitX=0.67;exitY=0.079;exitDx=0;exitDy=0;exitPerimeter=0;entryX=0.667;entryY=1.052;entryDx=0;entryDy=0;entryPerimeter=0;" parent="1" source="Q0yMT5RCZBhQiYAW3Fju-113" target="Q0yMT5RCZBhQiYAW3Fju-111" edge="1">
          <mxGeometry width="50" height="50" relative="1" as="geometry">
            <mxPoint x="-12.940000000000055" y="892.9999999999998" as="sourcePoint" />
            <mxPoint x="-34.99999999999977" y="950" as="targetPoint" />
          </mxGeometry>
        </mxCell>
        <mxCell id="lLUH3YidAdsCZCi5Clt2-102" value="" style="endArrow=none;dashed=1;html=1;dashPattern=1 3;strokeWidth=2;rounded=0;curved=1;edgeStyle=orthogonalEdgeStyle;exitX=0;exitY=0.25;exitDx=0;exitDy=0;entryX=0;entryY=0.5;entryDx=0;entryDy=0;" parent="1" source="Q0yMT5RCZBhQiYAW3Fju-99" target="Q0yMT5RCZBhQiYAW3Fju-110" edge="1">
          <mxGeometry width="50" height="50" relative="1" as="geometry">
            <mxPoint x="-2.9400000000000546" y="902.9999999999998" as="sourcePoint" />
            <mxPoint x="-24.999999999999773" y="960" as="targetPoint" />
            <Array as="points">
              <mxPoint x="-110" y="581" />
              <mxPoint x="-110" y="855" />
            </Array>
          </mxGeometry>
        </mxCell>
        <mxCell id="lLUH3YidAdsCZCi5Clt2-103" value="" style="endArrow=none;html=1;rounded=0;curved=1;edgeStyle=orthogonalEdgeStyle;entryX=0.5;entryY=1;entryDx=0;entryDy=0;exitX=0.5;exitY=0;exitDx=0;exitDy=0;" parent="1" source="lLUH3YidAdsCZCi5Clt2-3" target="lLUH3YidAdsCZCi5Clt2-2" edge="1">
          <mxGeometry width="50" height="50" relative="1" as="geometry">
            <mxPoint x="120" y="1180" as="sourcePoint" />
            <mxPoint x="170" y="1130" as="targetPoint" />
          </mxGeometry>
        </mxCell>
        <mxCell id="lLUH3YidAdsCZCi5Clt2-104" value="" style="endArrow=none;html=1;rounded=0;curved=1;edgeStyle=orthogonalEdgeStyle;entryX=0.564;entryY=1.075;entryDx=0;entryDy=0;exitX=0.5;exitY=0;exitDx=0;exitDy=0;entryPerimeter=0;" parent="1" source="lLUH3YidAdsCZCi5Clt2-4" target="lLUH3YidAdsCZCi5Clt2-2" edge="1">
          <mxGeometry width="50" height="50" relative="1" as="geometry">
            <mxPoint x="-119.99999999999977" y="1180" as="sourcePoint" />
            <mxPoint x="15" y="1120" as="targetPoint" />
          </mxGeometry>
        </mxCell>
        <mxCell id="lLUH3YidAdsCZCi5Clt2-105" value="" style="endArrow=none;dashed=1;html=1;dashPattern=1 3;strokeWidth=2;rounded=0;curved=1;edgeStyle=orthogonalEdgeStyle;entryX=0.408;entryY=1.1;entryDx=0;entryDy=0;entryPerimeter=0;exitX=0.5;exitY=0;exitDx=0;exitDy=0;" parent="1" source="lLUH3YidAdsCZCi5Clt2-10" target="lLUH3YidAdsCZCi5Clt2-4" edge="1">
          <mxGeometry width="50" height="50" relative="1" as="geometry">
            <mxPoint x="60" y="1470" as="sourcePoint" />
            <mxPoint x="110" y="1420" as="targetPoint" />
          </mxGeometry>
        </mxCell>
        <mxCell id="lLUH3YidAdsCZCi5Clt2-106" value="" style="endArrow=none;dashed=1;html=1;dashPattern=1 3;strokeWidth=2;rounded=0;curved=1;edgeStyle=orthogonalEdgeStyle;entryX=0.592;entryY=1.148;entryDx=0;entryDy=0;entryPerimeter=0;exitX=0.75;exitY=0;exitDx=0;exitDy=0;" parent="1" source="lLUH3YidAdsCZCi5Clt2-11" target="lLUH3YidAdsCZCi5Clt2-4" edge="1">
          <mxGeometry width="50" height="50" relative="1" as="geometry">
            <mxPoint x="40" y="1265" as="sourcePoint" />
            <mxPoint x="127.11999999999989" y="1212.9999999999998" as="targetPoint" />
          </mxGeometry>
        </mxCell>
        <mxCell id="lLUH3YidAdsCZCi5Clt2-107" value="" style="endArrow=none;dashed=1;html=1;dashPattern=1 3;strokeWidth=2;rounded=0;curved=1;edgeStyle=orthogonalEdgeStyle;entryX=1;entryY=0.5;entryDx=0;entryDy=0;exitX=0;exitY=1;exitDx=0;exitDy=0;" parent="1" source="lLUH3YidAdsCZCi5Clt2-26" target="lLUH3YidAdsCZCi5Clt2-27" edge="1">
          <mxGeometry width="50" height="50" relative="1" as="geometry">
            <mxPoint x="50" y="1275" as="sourcePoint" />
            <mxPoint x="137.1199999999999" y="1222.9999999999998" as="targetPoint" />
          </mxGeometry>
        </mxCell>
        <mxCell id="lLUH3YidAdsCZCi5Clt2-108" value="" style="endArrow=none;dashed=1;html=1;dashPattern=1 3;strokeWidth=2;rounded=0;curved=1;edgeStyle=orthogonalEdgeStyle;entryX=1;entryY=0.5;entryDx=0;entryDy=0;exitX=0.25;exitY=1;exitDx=0;exitDy=0;" parent="1" source="lLUH3YidAdsCZCi5Clt2-26" target="lLUH3YidAdsCZCi5Clt2-28" edge="1">
          <mxGeometry width="50" height="50" relative="1" as="geometry">
            <mxPoint x="-30" y="1415" as="sourcePoint" />
            <mxPoint x="-149.99999999999977" y="1445" as="targetPoint" />
          </mxGeometry>
        </mxCell>
        <mxCell id="lLUH3YidAdsCZCi5Clt2-109" value="" style="endArrow=none;dashed=1;html=1;dashPattern=1 3;strokeWidth=2;rounded=0;curved=1;edgeStyle=orthogonalEdgeStyle;entryX=1;entryY=0.5;entryDx=0;entryDy=0;exitX=0.5;exitY=1;exitDx=0;exitDy=0;" parent="1" source="lLUH3YidAdsCZCi5Clt2-26" target="lLUH3YidAdsCZCi5Clt2-29" edge="1">
          <mxGeometry width="50" height="50" relative="1" as="geometry">
            <mxPoint x="20" y="1410" as="sourcePoint" />
            <mxPoint x="-139.99999999999977" y="1455" as="targetPoint" />
            <Array as="points">
              <mxPoint x="20" y="1405" />
              <mxPoint x="20" y="1515" />
            </Array>
          </mxGeometry>
        </mxCell>
        <mxCell id="lLUH3YidAdsCZCi5Clt2-110" value="" style="endArrow=none;dashed=1;html=1;dashPattern=1 3;strokeWidth=2;rounded=0;curved=1;edgeStyle=orthogonalEdgeStyle;entryX=1;entryY=0.5;entryDx=0;entryDy=0;" parent="1" target="lLUH3YidAdsCZCi5Clt2-33" edge="1">
          <mxGeometry width="50" height="50" relative="1" as="geometry">
            <mxPoint x="70" y="1410" as="sourcePoint" />
            <mxPoint x="-129.99999999999977" y="1465" as="targetPoint" />
            <Array as="points">
              <mxPoint x="70" y="1540" />
              <mxPoint x="-160" y="1540" />
            </Array>
          </mxGeometry>
        </mxCell>
        <mxCell id="lLUH3YidAdsCZCi5Clt2-111" value="" style="endArrow=none;dashed=1;html=1;dashPattern=1 3;strokeWidth=2;rounded=0;curved=1;edgeStyle=orthogonalEdgeStyle;entryX=1;entryY=0.5;entryDx=0;entryDy=0;exitX=0.857;exitY=1.021;exitDx=0;exitDy=0;exitPerimeter=0;" parent="1" source="lLUH3YidAdsCZCi5Clt2-26" target="lLUH3YidAdsCZCi5Clt2-34" edge="1">
          <mxGeometry width="50" height="50" relative="1" as="geometry">
            <mxPoint y="1445" as="sourcePoint" />
            <mxPoint x="-119.99999999999977" y="1475" as="targetPoint" />
          </mxGeometry>
        </mxCell>
        <mxCell id="lLUH3YidAdsCZCi5Clt2-112" value="" style="endArrow=none;dashed=1;html=1;dashPattern=1 3;strokeWidth=2;rounded=0;curved=1;edgeStyle=orthogonalEdgeStyle;entryX=1;entryY=0.5;entryDx=0;entryDy=0;exitX=1;exitY=1;exitDx=0;exitDy=0;" parent="1" source="lLUH3YidAdsCZCi5Clt2-26" target="lLUH3YidAdsCZCi5Clt2-32" edge="1">
          <mxGeometry width="50" height="50" relative="1" as="geometry">
            <mxPoint x="10" y="1455" as="sourcePoint" />
            <mxPoint x="-109.99999999999977" y="1485" as="targetPoint" />
          </mxGeometry>
        </mxCell>
        <mxCell id="lLUH3YidAdsCZCi5Clt2-113" value="" style="endArrow=none;dashed=1;html=1;dashPattern=1 3;strokeWidth=2;rounded=0;curved=1;edgeStyle=orthogonalEdgeStyle;entryX=1;entryY=0.5;entryDx=0;entryDy=0;exitX=1;exitY=0.5;exitDx=0;exitDy=0;" parent="1" source="lLUH3YidAdsCZCi5Clt2-26" target="lLUH3YidAdsCZCi5Clt2-31" edge="1">
          <mxGeometry width="50" height="50" relative="1" as="geometry">
            <mxPoint x="20" y="1465" as="sourcePoint" />
            <mxPoint x="-99.99999999999977" y="1495" as="targetPoint" />
          </mxGeometry>
        </mxCell>
        <mxCell id="lLUH3YidAdsCZCi5Clt2-114" value="" style="endArrow=none;dashed=1;html=1;dashPattern=1 3;strokeWidth=2;rounded=0;curved=1;edgeStyle=orthogonalEdgeStyle;exitX=1;exitY=0.5;exitDx=0;exitDy=0;" parent="1" source="lLUH3YidAdsCZCi5Clt2-7" edge="1">
          <mxGeometry width="50" height="50" relative="1" as="geometry">
            <mxPoint x="60" y="1080" as="sourcePoint" />
            <mxPoint x="-200" y="1185" as="targetPoint" />
          </mxGeometry>
        </mxCell>
        <mxCell id="lLUH3YidAdsCZCi5Clt2-115" value="" style="endArrow=none;dashed=1;html=1;dashPattern=1 3;strokeWidth=2;rounded=0;curved=1;edgeStyle=orthogonalEdgeStyle;exitX=1;exitY=0.5;exitDx=0;exitDy=0;entryX=0.194;entryY=1.052;entryDx=0;entryDy=0;entryPerimeter=0;" parent="1" source="lLUH3YidAdsCZCi5Clt2-6" target="lLUH3YidAdsCZCi5Clt2-3" edge="1">
          <mxGeometry width="50" height="50" relative="1" as="geometry">
            <mxPoint x="-279.9999999999998" y="1195" as="sourcePoint" />
            <mxPoint x="-189.99999999999977" y="1195" as="targetPoint" />
          </mxGeometry>
        </mxCell>
        <mxCell id="lLUH3YidAdsCZCi5Clt2-116" value="" style="endArrow=none;dashed=1;html=1;dashPattern=1 3;strokeWidth=2;rounded=0;curved=1;edgeStyle=orthogonalEdgeStyle;exitX=1;exitY=0.5;exitDx=0;exitDy=0;entryX=0.5;entryY=1;entryDx=0;entryDy=0;" parent="1" source="lLUH3YidAdsCZCi5Clt2-5" target="lLUH3YidAdsCZCi5Clt2-3" edge="1">
          <mxGeometry width="50" height="50" relative="1" as="geometry">
            <mxPoint x="-269.9999999999998" y="1205" as="sourcePoint" />
            <mxPoint x="-179.99999999999977" y="1205" as="targetPoint" />
          </mxGeometry>
        </mxCell>
        <mxCell id="lLUH3YidAdsCZCi5Clt2-117" value="" style="ellipse;whiteSpace=wrap;html=1;" parent="1" vertex="1">
          <mxGeometry x="460" y="590" width="20" height="20" as="geometry" />
        </mxCell>
        <mxCell id="lLUH3YidAdsCZCi5Clt2-120" value="" style="ellipse;whiteSpace=wrap;html=1;" parent="1" vertex="1">
          <mxGeometry x="470" y="1350" width="20" height="20" as="geometry" />
        </mxCell>
        <mxCell id="lLUH3YidAdsCZCi5Clt2-121" value="" style="ellipse;whiteSpace=wrap;html=1;" parent="1" vertex="1">
          <mxGeometry x="445" y="820" width="20" height="20" as="geometry" />
        </mxCell>
        <mxCell id="lLUH3YidAdsCZCi5Clt2-122" value="" style="ellipse;whiteSpace=wrap;html=1;" parent="1" vertex="1">
          <mxGeometry x="400" y="1110" width="20" height="20" as="geometry" />
        </mxCell>
        <mxCell id="lLUH3YidAdsCZCi5Clt2-125" value="" style="ellipse;whiteSpace=wrap;html=1;" parent="1" vertex="1">
          <mxGeometry x="425" y="1020" width="20" height="20" as="geometry" />
        </mxCell>
        <mxCell id="lLUH3YidAdsCZCi5Clt2-128" value="" style="ellipse;whiteSpace=wrap;html=1;" parent="1" vertex="1">
          <mxGeometry x="500" y="1480" width="20" height="20" as="geometry" />
        </mxCell>
        <mxCell id="lLUH3YidAdsCZCi5Clt2-129" value="" style="endArrow=none;html=1;rounded=0;curved=1;edgeStyle=orthogonalEdgeStyle;exitX=0.5;exitY=0;exitDx=0;exitDy=0;" parent="1" source="lLUH3YidAdsCZCi5Clt2-117" edge="1">
          <mxGeometry width="50" height="50" relative="1" as="geometry">
            <mxPoint x="400" y="560" as="sourcePoint" />
            <mxPoint x="410" y="310" as="targetPoint" />
          </mxGeometry>
        </mxCell>
        <mxCell id="lLUH3YidAdsCZCi5Clt2-130" value="" style="endArrow=none;html=1;rounded=0;curved=1;edgeStyle=orthogonalEdgeStyle;exitX=0.5;exitY=1;exitDx=0;exitDy=0;entryX=0.5;entryY=0;entryDx=0;entryDy=0;" parent="1" source="lLUH3YidAdsCZCi5Clt2-117" target="lLUH3YidAdsCZCi5Clt2-121" edge="1">
          <mxGeometry width="50" height="50" relative="1" as="geometry">
            <mxPoint x="480" y="600" as="sourcePoint" />
            <mxPoint x="420" y="320" as="targetPoint" />
          </mxGeometry>
        </mxCell>
        <mxCell id="lLUH3YidAdsCZCi5Clt2-131" value="" style="endArrow=none;html=1;rounded=0;curved=1;edgeStyle=orthogonalEdgeStyle;exitX=0.5;exitY=1;exitDx=0;exitDy=0;entryX=0.5;entryY=0;entryDx=0;entryDy=0;" parent="1" source="lLUH3YidAdsCZCi5Clt2-121" target="lLUH3YidAdsCZCi5Clt2-125" edge="1">
          <mxGeometry width="50" height="50" relative="1" as="geometry">
            <mxPoint x="400" y="760" as="sourcePoint" />
            <mxPoint x="450" y="710" as="targetPoint" />
          </mxGeometry>
        </mxCell>
        <mxCell id="lLUH3YidAdsCZCi5Clt2-133" value="" style="endArrow=none;html=1;rounded=0;curved=1;edgeStyle=orthogonalEdgeStyle;entryX=0.5;entryY=1;entryDx=0;entryDy=0;exitX=0.5;exitY=0;exitDx=0;exitDy=0;" parent="1" source="lLUH3YidAdsCZCi5Clt2-122" target="lLUH3YidAdsCZCi5Clt2-125" edge="1">
          <mxGeometry width="50" height="50" relative="1" as="geometry">
            <mxPoint x="400" y="1160" as="sourcePoint" />
            <mxPoint x="450" y="1110" as="targetPoint" />
          </mxGeometry>
        </mxCell>
        <mxCell id="lLUH3YidAdsCZCi5Clt2-134" value="" style="endArrow=none;html=1;rounded=0;curved=1;edgeStyle=orthogonalEdgeStyle;exitX=0.5;exitY=0;exitDx=0;exitDy=0;entryX=0.5;entryY=1;entryDx=0;entryDy=0;" parent="1" source="lLUH3YidAdsCZCi5Clt2-120" target="lLUH3YidAdsCZCi5Clt2-122" edge="1">
          <mxGeometry width="50" height="50" relative="1" as="geometry">
            <mxPoint x="400" y="1160" as="sourcePoint" />
            <mxPoint x="450" y="1110" as="targetPoint" />
            <Array as="points">
              <mxPoint x="470" y="1350" />
              <mxPoint x="470" y="1240" />
              <mxPoint x="410" y="1240" />
            </Array>
          </mxGeometry>
        </mxCell>
        <mxCell id="lLUH3YidAdsCZCi5Clt2-135" value="" style="endArrow=none;html=1;rounded=0;curved=1;edgeStyle=orthogonalEdgeStyle;entryX=1;entryY=1;entryDx=0;entryDy=0;exitX=0.5;exitY=0;exitDx=0;exitDy=0;" parent="1" source="lLUH3YidAdsCZCi5Clt2-128" target="lLUH3YidAdsCZCi5Clt2-120" edge="1">
          <mxGeometry width="50" height="50" relative="1" as="geometry">
            <mxPoint x="400" y="1480" as="sourcePoint" />
            <mxPoint x="450" y="1430" as="targetPoint" />
          </mxGeometry>
        </mxCell>
        <mxCell id="lLUH3YidAdsCZCi5Clt2-136" value="" style="endArrow=none;html=1;rounded=0;curved=1;edgeStyle=orthogonalEdgeStyle;entryX=0.5;entryY=1;entryDx=0;entryDy=0;" parent="1" target="lLUH3YidAdsCZCi5Clt2-128" edge="1">
          <mxGeometry width="50" height="50" relative="1" as="geometry">
            <mxPoint x="540" y="1810" as="sourcePoint" />
            <mxPoint x="450" y="1560" as="targetPoint" />
            <Array as="points">
              <mxPoint x="510" y="1650" />
              <mxPoint x="510" y="1650" />
            </Array>
          </mxGeometry>
        </mxCell>
        <mxCell id="lLUH3YidAdsCZCi5Clt2-137" value="" style="endArrow=none;html=1;rounded=0;curved=1;edgeStyle=orthogonalEdgeStyle;entryX=0;entryY=0.5;entryDx=0;entryDy=0;exitX=0.5;exitY=0;exitDx=0;exitDy=0;" parent="1" source="lLUH3YidAdsCZCi5Clt2-30" target="lLUH3YidAdsCZCi5Clt2-128" edge="1">
          <mxGeometry width="50" height="50" relative="1" as="geometry">
            <mxPoint x="550" y="1820" as="sourcePoint" />
            <mxPoint x="520" y="1510" as="targetPoint" />
            <Array as="points">
              <mxPoint x="330" y="1650" />
              <mxPoint x="330" y="1500" />
              <mxPoint x="500" y="1500" />
            </Array>
          </mxGeometry>
        </mxCell>
        <mxCell id="lLUH3YidAdsCZCi5Clt2-138" value="" style="endArrow=none;html=1;rounded=0;curved=1;edgeStyle=orthogonalEdgeStyle;entryX=0;entryY=0.5;entryDx=0;entryDy=0;entryPerimeter=0;exitX=1;exitY=0.25;exitDx=0;exitDy=0;" parent="1" source="Q0yMT5RCZBhQiYAW3Fju-99" target="lLUH3YidAdsCZCi5Clt2-117" edge="1">
          <mxGeometry width="50" height="50" relative="1" as="geometry">
            <mxPoint x="390" y="660" as="sourcePoint" />
            <mxPoint x="440" y="610" as="targetPoint" />
          </mxGeometry>
        </mxCell>
        <mxCell id="lLUH3YidAdsCZCi5Clt2-139" value="" style="endArrow=none;html=1;rounded=0;curved=1;edgeStyle=orthogonalEdgeStyle;entryX=0.422;entryY=-0.1;entryDx=0;entryDy=0;entryPerimeter=0;" parent="1" target="Q0yMT5RCZBhQiYAW3Fju-125" edge="1">
          <mxGeometry width="50" height="50" relative="1" as="geometry">
            <mxPoint x="460" y="830" as="sourcePoint" />
            <mxPoint x="630" y="770" as="targetPoint" />
          </mxGeometry>
        </mxCell>
        <mxCell id="lLUH3YidAdsCZCi5Clt2-141" value="" style="endArrow=none;html=1;rounded=0;curved=1;edgeStyle=orthogonalEdgeStyle;entryX=1;entryY=0;entryDx=0;entryDy=0;exitX=0;exitY=0.5;exitDx=0;exitDy=0;" parent="1" source="lLUH3YidAdsCZCi5Clt2-122" target="lLUH3YidAdsCZCi5Clt2-2" edge="1">
          <mxGeometry width="50" height="50" relative="1" as="geometry">
            <mxPoint x="445.0000000000514" y="1030" as="sourcePoint" />
            <mxPoint x="606.3200000000002" y="1167" as="targetPoint" />
          </mxGeometry>
        </mxCell>
        <mxCell id="lLUH3YidAdsCZCi5Clt2-142" value="" style="endArrow=none;html=1;rounded=0;curved=1;edgeStyle=orthogonalEdgeStyle;exitX=1;exitY=0.25;exitDx=0;exitDy=0;entryX=0;entryY=1;entryDx=0;entryDy=0;" parent="1" source="lLUH3YidAdsCZCi5Clt2-26" target="lLUH3YidAdsCZCi5Clt2-120" edge="1">
          <mxGeometry width="50" height="50" relative="1" as="geometry">
            <mxPoint x="390" y="1330" as="sourcePoint" />
            <mxPoint x="440" y="1280" as="targetPoint" />
            <Array as="points">
              <mxPoint x="130" y="1385" />
              <mxPoint x="310" y="1385" />
              <mxPoint x="310" y="1367" />
            </Array>
          </mxGeometry>
        </mxCell>
        <mxCell id="lLUH3YidAdsCZCi5Clt2-144" value="" style="endArrow=none;html=1;rounded=0;edgeStyle=orthogonalEdgeStyle;entryX=0.5;entryY=0;entryDx=0;entryDy=0;exitX=0.5;exitY=0;exitDx=0;exitDy=0;" parent="1" source="lLUH3YidAdsCZCi5Clt2-121" target="Q0yMT5RCZBhQiYAW3Fju-129" edge="1">
          <mxGeometry width="50" height="50" relative="1" as="geometry">
            <mxPoint x="440" y="850" as="sourcePoint" />
            <mxPoint x="1010" y="750" as="targetPoint" />
            <Array as="points">
              <mxPoint x="500" y="820" />
              <mxPoint x="500" y="790" />
              <mxPoint x="1095" y="790" />
            </Array>
          </mxGeometry>
        </mxCell>
        <mxCell id="lLUH3YidAdsCZCi5Clt2-145" value="&lt;b&gt;&lt;i&gt;MINDMAP OF JAVA&lt;/i&gt;&lt;/b&gt;" style="ellipse;whiteSpace=wrap;html=1;" parent="1" vertex="1">
          <mxGeometry x="70" y="20" width="690" height="60" as="geometry" />
        </mxCell>
        <mxCell id="lLUH3YidAdsCZCi5Clt2-146" value="" style="endArrow=classic;html=1;rounded=0;edgeStyle=orthogonalEdgeStyle;entryX=0;entryY=0.5;entryDx=0;entryDy=0;" parent="1" target="lLUH3YidAdsCZCi5Clt2-39" edge="1">
          <mxGeometry width="50" height="50" relative="1" as="geometry">
            <mxPoint x="520" y="1490" as="sourcePoint" />
            <mxPoint x="310" y="1290" as="targetPoint" />
          </mxGeometry>
        </mxCell>
        <mxCell id="lLUH3YidAdsCZCi5Clt2-147" value="" style="endArrow=classic;html=1;rounded=0;edgeStyle=orthogonalEdgeStyle;exitX=1;exitY=0.5;exitDx=0;exitDy=0;" parent="1" source="lLUH3YidAdsCZCi5Clt2-125" target="lLUH3YidAdsCZCi5Clt2-13" edge="1">
          <mxGeometry width="50" height="50" relative="1" as="geometry">
            <mxPoint x="260" y="1170" as="sourcePoint" />
            <mxPoint x="310" y="1120" as="targetPoint" />
            <Array as="points">
              <mxPoint x="620" y="1030" />
            </Array>
          </mxGeometry>
        </mxCell>
      </root>
    </mxGraphModel>
  </diagram>
</mxfile>
